<svg width="576" height="480" viewBox="0 0 576 480" fill="none" xmlns="http://www.w3.org/2000/svg">
<path d="M525.268 293.221C525.268 356.396 492.354 400.764 451.996 425.235C411.603 449.727 363.851 454.238 334.211 437.841C302.416 420.251 290.86 403.483 288.022 388.044C285.685 375.335 289.223 363.461 292.478 352.539C293.193 350.141 293.894 347.789 294.516 345.484C296.235 339.115 297.35 333.089 296.371 327.524C295.387 321.925 292.295 316.847 285.731 312.358C279.187 307.882 269.185 303.985 254.348 300.701C239.505 297.416 219.788 294.738 193.786 292.722C135.543 288.207 96.4509 270.965 73.5997 247.718C50.762 224.486 44.0976 195.21 50.7882 166.479C64.1769 108.983 131.105 53.5711 229.206 53.5711C283.969 53.5711 358.008 62.3213 418.339 96.6547C478.632 130.966 525.267 190.843 525.268 293.221Z" fill="#FCDDFF" stroke="url(#paint0_linear_495_1)"/>
<mask id="mask0_495_1" style="mask-type:alpha" maskUnits="userSpaceOnUse" x="47" y="53" width="479" height="396">
<path d="M525.214 293.221C525.215 356.396 492.3 400.764 451.942 425.235C411.549 449.727 363.797 454.238 334.158 437.841C302.362 420.251 290.807 403.483 287.968 388.044C285.631 375.335 289.17 363.461 292.425 352.539C293.139 350.141 293.84 347.789 294.462 345.484C296.181 339.115 297.296 333.089 296.318 327.524C295.333 321.925 292.242 316.847 285.678 312.358C279.133 307.882 269.131 303.985 254.294 300.701C239.451 297.416 219.734 294.738 193.733 292.722C135.49 288.207 96.3972 270.965 73.5459 247.718C50.7083 224.486 44.0439 195.21 50.7345 166.479C64.1232 108.983 131.052 53.5711 229.152 53.5711C283.915 53.5711 357.954 62.3214 418.285 96.6547C478.578 130.966 525.214 190.843 525.214 293.221Z" fill="#F6A182" stroke="url(#paint1_linear_495_1)"/>
</mask>
<g mask="url(#mask0_495_1)">
<path opacity="0.7" d="M59 310.876C80.1564 283.391 136.192 229.795 191.085 235.292C259.7 242.164 129.331 371 191.085 371C252.838 371 282 212.961 326.6 212.961C371.2 212.961 276.854 329.772 326.6 336.644C376.346 343.515 417.515 171.733 472.408 170.015C527.3 168.298 415.8 310.876 505 310.876" stroke="url(#paint2_linear_495_1)" stroke-width="2"/>
<path d="M375.725 272.26L376.71 272.192L376.223 272.308C376.71 272.192 376.71 272.193 376.71 272.194L376.711 272.197L376.714 272.211L376.728 272.268L376.782 272.495C376.829 272.696 376.901 272.995 376.996 273.389C377.185 274.178 377.466 275.346 377.836 276.866C378.575 279.905 379.666 284.349 381.073 289.965C383.888 301.196 387.967 317.116 393.026 335.868C403.125 373.299 417.126 422.009 432.764 467.249C432.913 467.274 433.119 467.308 433.376 467.345C433.956 467.431 434.795 467.54 435.826 467.635C437.89 467.824 440.716 467.953 443.768 467.717C449.837 467.246 456.653 465.342 460.291 459.767L460.232 459.56C460.151 459.279 460.032 458.861 459.876 458.313C459.565 457.216 459.107 455.597 458.523 453.506C457.353 449.324 455.676 443.256 453.644 435.71C449.58 420.619 444.097 399.618 438.42 375.977C427.11 328.875 415.022 271.26 411.864 229.024H341.877C341.871 229.223 341.862 229.483 341.852 229.802C341.824 230.635 341.785 231.874 341.736 233.494C341.638 236.734 341.502 241.503 341.35 247.615C341.045 259.839 340.675 277.436 340.412 298.926C339.889 341.857 339.797 400.324 341.523 462.535C341.597 462.598 341.698 462.683 341.826 462.784C342.136 463.031 342.605 463.38 343.231 463.781C344.482 464.582 346.358 465.588 348.842 466.394C353.746 467.985 361.043 468.804 370.617 465.687L370.617 465.65C370.617 465.386 370.617 464.993 370.617 464.478C370.616 463.449 370.617 461.933 370.62 459.983C370.625 456.084 370.639 450.452 370.671 443.522C370.737 429.662 370.879 410.608 371.187 389.831C371.803 348.286 373.079 299.83 375.725 272.26Z" fill="url(#paint3_linear_495_1)" stroke="url(#paint4_linear_495_1)"/>
<path d="M411.965 230.142C411.934 229.768 411.902 229.396 411.87 229.024H341.849C341.835 229.191 341.819 229.407 341.803 229.672C341.76 230.367 341.718 231.403 341.713 232.798C350.179 237.722 372.331 248.177 413.766 248.094C412.969 241.913 412.455 235.883 411.965 230.142Z" fill="#402B2B" fill-opacity="0.45" style="mix-blend-mode:multiply"/>
<path d="M411.965 230.142C411.934 229.768 411.902 229.396 411.87 229.024H341.849C341.835 229.191 341.819 229.407 341.803 229.672C341.76 230.367 341.718 231.403 341.713 232.798C350.179 237.722 372.331 248.177 413.766 248.094C412.969 241.913 412.455 235.883 411.965 230.142Z" stroke="url(#paint5_linear_495_1)"/>
<rect x="-163.67" y="93.6809" width="449.482" height="218.16" stroke="url(#paint6_linear_495_1)"/>
<path d="M170.246 274.685C170.246 295.138 182.025 311.664 196.512 311.664H222.778C237.265 311.664 248.909 295.003 248.909 274.685C248.909 254.232 237.13 237.707 222.643 237.707C222.372 237.707 222.237 237.707 221.966 237.707H196.512C181.89 237.707 170.246 254.232 170.246 274.685Z" fill="#A16EF5"/>
<path d="M-37.3076 271.57L68.4336 271.3L56.2483 264.12L-23.7684 264.256L-37.3076 271.57Z" fill="#402B2B"/>
<path d="M-137.092 211.295L-136.956 279.156L-51.1178 279.02L-23.7686 264.256L56.2482 264.121L80.8895 278.75L255.545 278.343C258.389 278.343 260.69 276.041 260.69 273.196L260.555 210.482L-137.092 211.295Z" fill="#9155F3"/>
<path d="M50.0214 226.736L187.038 226.465L186.767 102.256C186.767 97.2445 182.706 93.1809 177.561 93.1809L49.6152 93.4518L50.0214 226.736Z" fill="#A06DF4"/>
<path d="M-163.628 227.278L49.8857 226.872L49.6149 93.5875L-154.827 93.9939C-159.837 93.9939 -163.898 98.0574 -163.898 103.205L-163.628 227.278Z" fill="#8E54ED"/>
<path d="M152.917 274.685C152.917 295.138 141.274 311.664 126.787 311.664H100.656V299.202C91.0432 299.202 83.1904 288.23 83.1904 274.685C83.1904 261.14 90.9078 250.169 100.521 250.169V237.707H126.651C141.138 237.843 152.782 254.368 152.917 274.685Z" fill="#A16EF5"/>
<path d="M78.9951 274.957C78.9951 291.753 88.608 305.298 100.522 305.162C112.437 305.162 121.914 291.617 121.914 274.821C121.914 258.025 112.302 244.48 100.387 244.616C88.608 244.616 78.9951 258.161 78.9951 274.957Z" fill="#9A63F4"/>
<path d="M100.521 294.867C108.374 294.867 114.602 285.928 114.602 274.821C114.602 263.714 108.238 254.909 100.385 254.909C92.5327 254.909 86.3047 263.849 86.3047 274.956C86.3047 286.063 92.6681 294.867 100.521 294.867ZM100.521 263.036C105.124 263.036 108.915 268.319 108.915 274.821C108.915 281.322 105.124 286.74 100.521 286.74C95.9175 286.74 92.1265 281.458 92.1265 274.956C92.1265 268.319 95.7821 263.036 100.521 263.036Z" fill="#B896F0"/>
<path d="M100.521 311.799C115.008 311.799 126.652 295.139 126.652 274.821C126.652 254.503 114.873 237.843 100.386 237.843C85.8986 237.843 74.2549 254.503 74.2549 274.821C74.2549 295.139 86.1694 311.934 100.521 311.799ZM100.386 244.615C112.3 244.615 121.913 258.16 121.913 274.821C121.913 291.617 112.436 305.162 100.521 305.162C88.6065 305.162 78.9936 291.617 78.9936 274.956C78.9936 258.16 88.6065 244.615 100.386 244.615Z" fill="#B896F0"/>
<path d="M96.8662 274.821C96.8662 271.976 98.4909 269.809 100.386 269.809C102.282 269.809 103.907 272.112 104.042 274.821C104.042 277.665 102.417 279.833 100.522 279.833C98.4909 279.968 96.8662 277.665 96.8662 274.821Z" fill="#5B2929"/>
<path d="M277.749 173.504C277.749 174.046 278.155 174.452 278.561 174.588C279.644 174.858 283.706 174.858 284.924 174.452C285.466 174.317 286.007 173.91 286.007 173.233C286.414 162.397 286.414 151.832 286.007 141.808C286.007 141.131 285.466 140.725 284.924 140.589C283.57 140.183 278.832 139.912 277.342 140.454C276.801 140.589 276.395 141.131 276.395 141.673C276.124 151.967 276.53 162.532 277.749 173.504Z" fill="#AE76F6"/>
<path d="M271.116 183.121C271.251 183.121 271.386 183.121 271.657 182.985L280.864 178.38C283.03 177.296 284.384 175.129 284.384 172.691L284.249 138.693C284.249 137.338 283.166 136.254 281.812 136.254H256.493C255.816 136.254 255.41 136.796 255.41 137.338C255.41 138.015 255.952 138.422 256.493 138.422H281.812C281.947 138.422 281.947 138.557 281.947 138.557L282.082 172.555C282.082 174.181 281.135 175.535 279.781 176.213L270.574 180.818C270.032 181.089 269.762 181.766 270.032 182.308C270.303 182.985 270.709 183.121 271.116 183.121Z" fill="#AE76F6"/>
<path d="M68.4337 226.465C68.4337 226.465 71.9539 226.465 77.3696 226.465H98.897C115.009 226.465 118.8 234.456 128.683 254.097L159.959 253.961C159.959 253.961 159.959 251.659 159.959 247.731L279.375 247.46C279.916 237.572 280.999 217.525 280.999 198.562C280.999 197.884 280.999 197.343 280.999 196.665C280.999 191.247 280.052 185.288 278.427 179.328C272.063 156.03 255.952 131.242 249.318 122.167C247.151 119.187 245.256 116.614 243.631 114.311C239.028 108.216 235.914 105.1 230.092 105.1L85.3578 105.507C82.3791 105.507 79.6713 107.539 78.859 110.383C66.4029 156.166 68.2984 190.976 68.4337 226.465ZM190.422 121.625C190.287 120.948 190.828 120.406 191.505 120.406L235.508 120.271C238.08 120.271 240.653 121.625 242.277 123.928C259.472 147.361 266.377 168.762 268.949 181.089L271.657 194.092C272.063 195.988 270.845 197.478 268.949 197.478H258.254C256.493 197.478 254.598 196.665 253.244 195.311L231.31 174.316C228.873 172.013 225.624 170.659 222.51 170.659H196.244L190.422 121.625Z" fill="#9155F3"/>
<path d="M167.675 179.735C168.623 184.069 169.706 188.539 170.653 193.28C171.33 196.531 174.174 198.833 177.423 198.969C220.207 200.459 255.68 200.594 280.998 198.698C280.998 198.021 280.998 197.479 280.998 196.802C280.998 191.383 280.05 185.424 278.426 179.464L167.675 179.735Z" fill="#B890FB"/>
<path d="M88.6058 120.542L132.608 120.407C135.181 120.407 137.482 121.761 138.701 124.064C151.022 147.497 153.594 168.898 153.594 181.224V194.228C153.594 196.124 152.105 197.614 150.209 197.614H139.513C137.753 197.614 135.993 196.801 134.91 195.447L117.309 174.452C115.278 172.149 112.435 170.659 109.321 170.795H83.0547L87.2519 121.761C87.2519 121.084 87.7934 120.542 88.6058 120.542Z" fill="#945BF1"/>
<path d="M68.4337 226.465C68.4337 226.465 71.9539 226.465 77.3696 226.465H98.897C115.009 226.465 118.8 234.456 128.683 254.097L159.959 253.961C159.959 253.961 159.959 251.659 159.959 247.731L279.375 247.46C279.916 237.572 280.999 217.525 280.999 198.562C255.681 200.458 220.073 200.458 177.424 198.833C174.175 198.697 171.332 196.395 170.655 193.144C169.707 188.403 168.624 183.798 167.676 179.599C161.854 154.811 155.491 137.067 147.097 117.833C146.42 116.343 147.503 114.582 149.127 114.582L243.631 114.311C239.028 108.216 235.914 105.1 230.092 105.1L85.3578 105.507C82.3791 105.507 79.6713 107.539 78.859 110.383C66.4029 156.166 68.2984 190.976 68.4337 226.465ZM82.9207 170.794L87.1178 121.761C87.1178 121.084 87.7948 120.542 88.4718 120.542L132.474 120.406C135.047 120.406 137.348 121.761 138.567 124.064C150.888 147.497 153.46 168.898 153.46 181.224V194.227C153.46 196.124 151.971 197.614 150.075 197.614H139.379C137.619 197.614 135.859 196.801 134.776 195.446L117.175 174.451C115.144 172.149 112.301 170.659 109.187 170.794H82.9207Z" fill="#BD99F9"/>
<path d="M73.7132 222.943C73.7132 224.975 75.338 226.465 77.3689 226.465H98.8962C115.008 226.465 118.799 234.457 128.682 254.097L159.958 253.962C159.958 253.962 159.958 251.659 159.958 247.731L159.823 192.873C159.823 165.647 154.949 148.445 142.086 121.219C140.191 117.156 135.994 114.582 131.526 114.582L84.9508 114.718C83.8677 114.718 83.0553 115.395 82.7845 116.343C73.5779 151.29 73.5779 208.179 73.7132 222.943ZM82.9199 170.795L87.1171 121.761C87.1171 121.084 87.794 120.542 88.471 120.542L132.473 120.407C135.046 120.407 137.348 121.761 138.566 124.064C150.887 147.497 153.459 168.898 153.459 181.224V194.228C153.459 196.124 151.97 197.614 150.074 197.614H139.378C137.618 197.614 135.858 196.801 134.775 195.447L117.174 174.452C115.143 172.149 112.3 170.659 109.186 170.795H82.9199Z" fill="#A777F5"/>
<path d="M88.8766 122.167L132.608 122.032C134.504 122.032 136.264 123.116 137.212 124.741C149.938 148.987 151.969 170.524 151.969 181.089V194.092C151.969 195.04 151.157 195.853 150.209 195.853H139.513C138.159 195.853 136.941 195.311 136.128 194.363L118.527 173.368C116.226 170.659 112.841 169.034 109.185 169.034H84.8148L88.8766 122.167ZM88.6058 120.542C87.9288 120.542 87.2519 121.084 87.2519 121.761L83.0547 170.795H109.321C112.435 170.795 115.278 172.149 117.309 174.452L134.91 195.447C135.993 196.801 137.753 197.614 139.513 197.614H150.209C152.105 197.614 153.594 196.124 153.594 194.228V181.224C153.594 168.898 151.022 147.497 138.701 124.064C137.482 121.761 135.181 120.407 132.608 120.407L88.6058 120.542Z" fill="#CF8DF7"/>
<path d="M159.824 221.859V247.731L207.076 247.595C206.535 240.823 205.316 234.321 203.285 228.226C202.473 225.788 200.442 224.027 197.869 223.62C187.444 222.401 174.176 221.859 159.824 221.859ZM255.411 247.595H278.834C279.24 241.906 279.646 232.696 280.052 222.266C274.366 222.537 269.086 223.078 264.347 223.756C261.775 224.162 259.744 225.923 258.931 228.361C257.036 234.321 255.953 240.823 255.411 247.595Z" fill="#AC7FF4"/>
<path d="M159.959 273.738L269.491 273.467C276.938 273.467 283.03 267.371 283.03 259.921V257.619C283.03 255.452 281.27 253.826 279.239 253.826L160.094 254.097L159.959 273.738Z" fill="#AC7FF4"/>
<path d="M139.785 273.738H159.959V254.097H128.954L132.339 267.778C133.151 271.299 136.265 273.738 139.785 273.738Z" fill="#CF8DF7"/>
<path d="M91.5853 202.084C96.1887 202.22 105.125 203.168 105.125 206.419C105.125 209.669 97.2718 210.753 90.9084 210.753C84.5449 210.753 83.8679 207.231 83.3264 205.741C82.9202 204.251 82.514 201.949 91.5853 202.084Z" fill="#AC7FF4"/>
<path d="M91.9915 205.606C89.8252 205.606 87.5236 204.928 86.4404 203.845C87.2528 203.438 88.4713 203.032 90.3668 203.032C93.887 203.032 99.5735 203.438 102.552 204.793C102.146 205.064 101.063 205.606 99.3027 205.606C97.1364 205.606 94.2932 205.606 91.9915 205.606Z" fill="#9B66F2"/>
<path d="M101.063 208.179C101.876 208.179 102.282 208.315 102.417 208.45C99.9802 209.534 95.5122 209.94 93.3459 209.94C90.2319 209.94 88.0656 209.94 87.3887 209.263C87.9302 208.857 89.1488 208.179 90.3673 208.179C91.992 208.315 99.9802 208.179 101.063 208.179Z" fill="#9B66F2"/>
<path d="M159.959 247.866C159.959 251.794 159.959 254.097 159.959 254.097L278.969 253.826C278.969 253.826 279.104 251.523 279.375 247.595L159.959 247.866Z" fill="#A370F7"/>
<g opacity="0.2">
<path d="M211.273 220.505V246.376L251.214 246.24V220.369C251.214 217.254 248.371 214.816 244.851 214.816H217.501C214.117 214.951 211.273 217.525 211.273 220.505Z" fill="#B636F1"/>
</g>
<path d="M264.617 245.428H273.012C275.178 245.428 277.073 243.667 277.073 241.364V237.166C277.073 234.998 275.313 233.102 273.012 233.102H264.617C262.451 233.102 260.556 234.863 260.556 237.166V241.364C260.556 243.667 262.451 245.428 264.617 245.428Z" fill="white"/>
<path d="M185.14 245.699H193.534C195.7 245.699 197.596 243.938 197.596 241.636V237.437C197.596 235.27 195.836 233.373 193.534 233.373H185.14C182.974 233.373 181.078 235.134 181.078 237.437V241.636C181.078 243.803 182.838 245.699 185.14 245.699Z" fill="white"/>
<path d="M130.984 173.775C130.984 174.317 131.39 174.723 131.797 174.859C137.077 175.4 142.628 175.4 148.315 174.723C148.992 174.588 149.398 174.181 149.398 173.504C149.804 162.668 149.804 152.103 149.398 142.079C149.398 141.402 148.856 140.996 148.315 140.86C142.493 140.183 136.671 140.183 130.578 140.86C130.037 140.996 129.63 141.538 129.63 142.079C129.224 152.238 129.766 162.803 130.984 173.775Z" fill="#B891FA"/>
<path d="M151.969 183.392C152.375 183.392 152.781 183.121 152.917 182.715C153.187 182.173 152.917 181.496 152.375 181.225L143.168 176.755C141.814 176.078 140.867 174.588 140.867 173.098L140.731 139.099C140.731 138.964 140.867 138.964 140.867 138.964H146.553C147.23 138.964 147.636 138.422 147.636 137.88C147.636 137.203 147.095 136.797 146.553 136.797H140.867C139.513 136.797 138.43 137.88 138.43 139.235L138.565 173.233C138.565 175.671 139.919 177.838 142.085 178.922L151.292 183.392C151.698 183.392 151.834 183.392 151.969 183.392Z" fill="#A879F5"/>
<path d="M214.065 275.341L252.381 275.258L252.356 263.745L214.04 263.828L214.065 275.341Z" fill="#CCA0F8"/>
<path opacity="0.6" d="M146.836 118.243C155.23 137.477 161.458 155.221 167.415 180.008L278.166 179.737C271.803 156.44 255.691 131.652 249.057 122.577C246.891 119.597 244.995 117.024 243.37 114.721L148.867 114.992C147.242 115.127 146.159 116.753 146.836 118.243Z" fill="url(#paint7_linear_495_1)"/>
<path d="M458.982 381.928H566.411V464.655H458.982V381.928Z" fill="#8C5E5E" stroke="url(#paint8_linear_495_1)"/>
<path d="M485.651 381.928H494.827V392.513H485.651V381.928Z" fill="#A3774A" stroke="url(#paint9_linear_495_1)"/>
<path d="M387.877 381.928H495.306V464.655H387.877V381.928Z" fill="#C099FF" stroke="url(#paint10_linear_495_1)"/>
<path d="M457.004 381.928H495.48V464.655H457.004V381.928Z" fill="#A271F2" stroke="url(#paint11_linear_495_1)"/>
<path d="M472.795 381.928H481.971V392.513H472.795V381.928Z" fill="white" stroke="url(#paint12_linear_495_1)"/>
<path d="M414.544 381.928H423.72V392.513H414.544V381.928Z" fill="white" stroke="url(#paint13_linear_495_1)"/>
<path d="M415.529 300.654H522.958V383.381H415.529V300.654Z" fill="#C099FF" stroke="url(#paint14_linear_495_1)"/>
<path d="M484.656 300.654H523.133V383.381H484.656V300.654Z" fill="#A271F2" stroke="url(#paint15_linear_495_1)"/>
<path d="M500.447 300.654H509.624V311.239H500.447V300.654Z" fill="white" stroke="url(#paint16_linear_495_1)"/>
<path d="M442.196 300.654H451.372V311.239H442.196V300.654Z" fill="white" stroke="url(#paint17_linear_495_1)"/>
</g>
<path d="M367.656 35.1882C367.604 35.2143 367.55 35.2411 367.495 35.2685C366.808 35.6075 365.87 36.0336 364.874 36.3737C363.885 36.7112 362.802 36.9771 361.838 36.9677C360.873 36.9584 359.92 36.6663 359.383 35.77C358.97 35.0826 358.702 34.6667 358.504 34.4208C358.4 34.2912 358.337 34.2372 358.308 34.2163C358.302 34.2183 358.295 34.2209 358.286 34.2244C358.232 34.2452 358.171 34.2757 358.068 34.3271C358.058 34.3325 358.046 34.338 358.035 34.3438C357.801 34.461 357.472 34.6194 357.002 34.7239C356.043 34.9372 355.447 34.4546 355.059 34.1406C355.004 34.0962 354.954 34.0553 354.907 34.0201C354.703 33.8671 354.56 33.796 354.4 33.7856C354.237 33.7751 353.969 33.8225 353.52 34.1074C353.057 34.4179 352.487 35.0573 351.895 35.9373C351.309 36.8078 350.73 37.8706 350.239 38.9768C349.747 40.0836 349.349 41.2208 349.119 42.2391C348.931 43.067 348.864 43.7767 348.922 44.3168H365.611L367.656 35.1882Z" fill="#6B1912" stroke="url(#paint18_linear_495_1)"/>
<path d="M327.332 203.966L310.626 182.208L327.552 156.622L351.759 163.65C351.423 165.484 350.318 168.144 348.679 171.319C346.92 174.725 344.579 178.662 342.016 182.697C337.058 190.502 331.285 198.646 327.332 203.966Z" fill="url(#paint19_linear_495_1)" stroke="url(#paint20_linear_495_1)"/>
<path d="M337.469 194.083C339.786 188.491 342.381 178.687 344.659 168.783C347.013 158.549 349.018 148.258 350.018 142.506L350.016 142.482C350.009 142.42 349.999 142.329 349.985 142.209C349.958 141.969 349.916 141.616 349.86 141.166C349.748 140.265 349.577 138.976 349.342 137.422C348.873 134.312 348.149 130.149 347.134 125.924C346.118 121.694 344.814 117.427 343.19 114.099C342.378 112.435 341.495 111.025 340.543 109.975C339.694 109.038 338.809 108.408 337.889 108.121C337.766 108.322 337.585 108.621 337.354 109.012C336.882 109.809 336.198 110.991 335.351 112.532C333.655 115.613 331.305 120.126 328.689 125.846C323.482 137.231 317.224 153.395 312.982 172.573L337.469 194.083Z" fill="url(#paint21_linear_495_1)" stroke="url(#paint22_linear_495_1)"/>
<path d="M338.078 107.438C338.085 107.615 338.095 107.863 338.108 108.192C338.138 108.964 338.185 110.178 338.249 111.95C338.377 115.494 338.577 121.27 338.862 130.198C339.43 148.018 340.339 178.398 341.703 228.659C341.706 228.66 341.709 228.662 341.712 228.663C341.901 228.751 342.186 228.879 342.568 229.04C343.331 229.363 344.481 229.816 346.018 230.333C349.091 231.369 353.709 232.662 359.87 233.683C372.123 235.715 390.484 236.674 414.932 232.388C414.936 232.161 414.941 231.845 414.949 231.444C414.967 230.561 415.001 229.271 415.062 227.639C415.185 224.375 415.419 219.744 415.864 214.274C416.754 203.337 418.489 189.032 421.872 175.586L421.872 175.585L421.874 175.578L421.881 175.551L421.908 175.443C421.931 175.347 421.966 175.205 422.011 175.019C422.101 174.646 422.233 174.097 422.399 173.393C422.73 171.985 423.196 169.956 423.735 167.475C424.813 162.512 426.185 155.743 427.357 148.514C428.529 141.283 429.5 133.603 429.781 126.815C430.059 120.095 429.656 114.333 428.16 110.741C428.085 110.697 427.979 110.634 427.842 110.555C427.539 110.38 427.086 110.125 426.491 109.807C425.3 109.171 423.54 108.286 421.267 107.289C416.722 105.296 410.133 102.862 401.965 101.103C385.701 97.6004 363.183 96.7744 338.078 107.438Z" fill="url(#paint23_linear_495_1)" stroke="url(#paint24_linear_495_1)"/>
<path d="M396.7 101.252L397.393 82.7791C392.961 84.6356 388.601 85.9573 384.876 86.7637C381.322 87.5329 378.302 87.8431 376.342 87.6776L375.997 100.023C376.008 100.037 376.02 100.052 376.033 100.068C376.124 100.184 376.266 100.354 376.459 100.561C376.847 100.976 377.443 101.54 378.266 102.122C379.909 103.283 382.466 104.523 386.1 104.79C389.732 104.966 392.421 104.036 394.196 103.071C395.085 102.588 395.747 102.095 396.183 101.726C396.401 101.542 396.563 101.389 396.668 101.284C396.679 101.272 396.69 101.262 396.7 101.252Z" fill="url(#paint25_linear_495_1)" stroke="url(#paint26_linear_495_1)"/>
<path d="M397.259 90.7243L397.757 82.2556H377.063L376.381 95.7261C378.174 95.8872 381.093 95.6078 384.641 94.8353C388.405 94.0157 392.825 92.6523 397.259 90.7243Z" fill="url(#paint27_linear_495_1)" style="mix-blend-mode:multiply"/>
<path d="M397.259 90.7243L397.757 82.2556H377.063L376.381 95.7261C378.174 95.8872 381.093 95.6078 384.641 94.8353C388.405 94.0157 392.825 92.6523 397.259 90.7243Z" stroke="url(#paint28_linear_495_1)"/>
<path d="M411.888 174.231L411.887 174.233C410.95 176.867 410.239 181.503 409.383 187.189L409.329 187.55C408.49 193.129 407.512 199.629 406.046 206.056C404.548 212.62 402.536 219.135 399.624 224.534C397.16 229.104 394.034 232.906 390.002 235.247C390.291 235.227 390.602 235.206 390.932 235.183C393.036 235.035 395.91 234.818 398.995 234.545C404.967 234.016 411.668 233.278 415.116 232.42C415.121 232.176 415.128 231.82 415.139 231.36C415.162 230.426 415.202 229.065 415.27 227.355C415.407 223.935 415.658 219.116 416.115 213.521C417.027 202.342 418.761 188.043 422.051 175.6L422.06 175.546L422.099 175.326L422.246 174.478C422.375 173.741 422.56 172.676 422.788 171.361C423.244 168.73 423.87 165.099 424.554 161.097C425.858 153.463 427.37 144.484 428.297 138.53L426.376 139.251L426.34 139.334C426.26 139.514 426.143 139.78 425.992 140.122C425.691 140.806 425.256 141.796 424.722 143.019C423.654 145.463 422.19 148.837 420.606 152.552C417.437 159.988 413.797 168.776 411.888 174.231Z" fill="#EE4D47" fill-opacity="0.29" style="mix-blend-mode:multiply"/>
<path d="M411.888 174.231L411.887 174.233C410.95 176.867 410.239 181.503 409.383 187.189L409.329 187.55C408.49 193.129 407.512 199.629 406.046 206.056C404.548 212.62 402.536 219.135 399.624 224.534C397.16 229.104 394.034 232.906 390.002 235.247C390.291 235.227 390.602 235.206 390.932 235.183C393.036 235.035 395.91 234.818 398.995 234.545C404.967 234.016 411.668 233.278 415.116 232.42C415.121 232.176 415.128 231.82 415.139 231.36C415.162 230.426 415.202 229.065 415.27 227.355C415.407 223.935 415.658 219.116 416.115 213.521C417.027 202.342 418.761 188.043 422.051 175.6L422.06 175.546L422.099 175.326L422.246 174.478C422.375 173.741 422.56 172.676 422.788 171.361C423.244 168.73 423.87 165.099 424.554 161.097C425.858 153.463 427.37 144.484 428.297 138.53L426.376 139.251L426.34 139.334C426.26 139.514 426.143 139.78 425.992 140.122C425.691 140.806 425.256 141.796 424.722 143.019C423.654 145.463 422.19 148.837 420.606 152.552C417.437 159.988 413.797 168.776 411.888 174.231Z" stroke="url(#paint29_linear_495_1)"/>
<path d="M411.16 50.201C411.166 50.1743 411.173 50.1473 411.181 50.1206L405.438 44.375L405.406 44.352C405.363 44.3214 405.3 44.2766 405.22 44.2194C405.06 44.1052 404.83 43.9418 404.552 43.7457C403.995 43.3534 403.245 42.8309 402.474 42.3087C401.701 41.7857 400.911 41.2668 400.272 40.88C399.952 40.6861 399.678 40.5301 399.466 40.4242C399.464 40.4233 399.463 40.4225 399.461 40.4217C399.411 40.603 399.353 40.8445 399.288 41.1446C399.12 41.9246 398.916 43.0488 398.688 44.414C398.233 47.1421 397.687 50.8032 397.14 54.5321C397 55.4843 396.86 56.441 396.722 57.3875C396.319 60.1448 395.929 62.8157 395.589 65.039C395.361 66.5321 395.156 67.8269 394.984 68.8124C394.817 69.7655 394.674 70.4836 394.565 70.7904C394.465 71.0978 394.56 71.4752 394.943 71.9498C395.322 72.42 395.91 72.888 396.554 73.3105C397.193 73.729 397.858 74.0839 398.366 74.3352C398.619 74.4605 398.831 74.5592 398.98 74.6262C398.993 74.6321 399.006 74.6378 399.018 74.6432L402.588 73.1125L409.12 67.9904L410.553 55.9876L410.553 55.9845L410.556 55.9352L410.568 55.7484C410.579 55.5877 410.595 55.358 410.615 55.0818C410.655 54.5298 410.712 53.7909 410.781 53.0453C410.85 52.3018 410.93 51.5437 411.018 50.9566C411.061 50.665 411.108 50.4025 411.16 50.201Z" fill="#402B2B" stroke="url(#paint30_linear_495_1)"/>
<path d="M359.508 56.9962L361.698 50.9703L363.612 41.7446L358.486 39.6613C358.462 39.7473 358.436 39.8613 358.413 40.0075C358.332 40.5148 358.297 41.2656 358.301 42.2C358.31 44.0601 358.474 46.5519 358.69 49.0574C358.906 51.5597 359.173 54.0633 359.387 55.9421C359.43 56.3206 359.47 56.6737 359.508 56.9962ZM358.556 39.4823C358.559 39.4786 358.56 39.4764 358.56 39.4761C358.56 39.4759 358.559 39.4778 358.556 39.4823Z" fill="#402B2B" stroke="url(#paint31_linear_495_1)"/>
<path d="M406.296 75.4208C406.846 75.4802 407.828 75.2345 408.967 73.133C410.002 71.0582 410.176 68.6275 409.722 66.6579C409.26 64.6563 408.21 63.324 406.969 63.0956C405.439 62.9289 404.416 63.2759 403.731 63.9039C403.03 64.5468 402.604 65.5563 402.43 66.8624C402.247 68.2362 402.064 69.4268 401.927 70.2741C401.858 70.6978 401.801 71.0359 401.761 71.2683C401.741 71.3846 401.725 71.4744 401.714 71.5353L401.702 71.6047L401.698 71.6226L401.698 71.6272L401.697 71.6285L401.697 71.6288L401.697 71.6289L401.205 71.5395L401.697 71.6289L401.612 72.0982L401.139 72.0352L398.404 71.6703L397.927 71.6067L397.972 71.1275L399.964 50.1132C399.935 50.0575 399.896 49.9845 399.847 49.8959C399.726 49.6724 399.546 49.3501 399.315 48.9577C398.854 48.1722 398.19 47.1091 397.382 45.9968C396.572 44.8833 395.624 43.7293 394.594 42.757C393.56 41.7811 392.469 41.0121 391.377 40.634C389.274 39.9056 387.232 40.9773 385.625 42.3848C384.834 43.0772 384.182 43.8225 383.727 44.397C383.5 44.6836 383.323 44.9259 383.204 45.0956C383.145 45.1804 383.099 45.2469 383.07 45.2916C383.055 45.3139 383.044 45.3307 383.036 45.3417L383.029 45.3536L383.027 45.3561L383.027 45.3562L383.027 45.3564L383.027 45.3564L382.914 45.5336L382.708 45.5766L382.606 45.0871C382.708 45.5766 382.707 45.5766 382.707 45.5766L382.707 45.5767L382.706 45.5769L382.703 45.5776L382.692 45.5798L382.651 45.5879C382.616 45.5947 382.565 45.6045 382.498 45.6165C382.366 45.6405 382.174 45.6734 381.93 45.7099C381.444 45.7827 380.753 45.8699 379.928 45.9279C378.284 46.0438 376.089 46.0456 373.929 45.5757C371.814 45.1157 370.066 44.6095 368.845 44.2178C368.234 44.0219 367.755 43.8545 367.428 43.7356C367.277 43.6809 367.158 43.6364 367.074 43.6042C366.993 43.6234 366.883 43.6475 366.748 43.6738C366.439 43.7338 365.994 43.8049 365.439 43.8522C364.441 43.9372 363.084 43.9455 361.52 43.6727L358.487 68.8443L358.485 68.8839C358.484 68.9228 358.482 68.9814 358.48 69.0587C358.477 69.2131 358.474 69.4417 358.476 69.7342C358.481 70.3194 358.508 71.1593 358.595 72.1723C358.769 74.2007 359.185 76.9101 360.147 79.6518C361.109 82.3942 362.61 85.1478 364.942 87.2908C367.267 89.4266 370.441 90.9786 374.798 91.2904C383.555 91.826 390.955 87.7585 396.195 83.5108C398.811 81.3899 400.876 79.2339 402.286 77.6083C402.991 76.7959 403.532 76.1169 403.895 75.6423C404.077 75.4051 404.215 75.219 404.306 75.093C404.352 75.03 404.386 74.982 404.409 74.9501L404.434 74.9146L404.439 74.9061L404.441 74.9043L404.441 74.9041L404.441 74.904L404.81 74.3699L405.23 74.8605L405.231 74.8612L405.231 74.8616L405.231 74.8619L405.232 74.8624L405.241 74.873C405.252 74.8845 405.27 74.9032 405.295 74.927C405.346 74.9748 405.422 75.0413 405.52 75.1104C405.719 75.2509 405.986 75.3872 406.296 75.4208Z" fill="url(#paint32_linear_495_1)" stroke="url(#paint33_linear_495_1)"/>
<path d="M367.382 74.1715C367.317 74.1618 367.256 74.1523 367.198 74.1433C367.193 74.316 367.191 74.525 367.2 74.7614C367.227 75.4697 367.347 76.4098 367.709 77.3586C368.07 78.304 368.67 79.2518 369.657 79.9968C370.644 80.741 372.05 81.3074 374.066 81.4391C376.828 81.6061 378.405 80.1208 379.323 78.5401C379.786 77.7438 380.074 76.9312 380.246 76.3139C380.299 76.1217 380.341 75.9495 380.374 75.804L380.308 75.7962C379.929 75.7509 379.386 75.6861 378.733 75.6077C377.428 75.4508 375.684 75.2398 373.928 75.0231C372.172 74.8064 370.404 74.5839 369.051 74.404C368.375 74.3141 367.8 74.2345 367.382 74.1715Z" fill="#893D43" stroke="url(#paint34_linear_495_1)"/>
<path d="M380.521 75.7997L380.491 75.7962C380.111 75.7509 379.568 75.6861 378.916 75.6077C377.61 75.4508 375.866 75.2398 374.11 75.0231C372.355 74.8064 370.586 74.5839 369.233 74.404C368.557 74.3141 367.983 74.2345 367.565 74.1715C367.491 74.1605 367.422 74.1499 367.358 74.1398C367.357 74.1633 367.355 74.1875 367.354 74.2125C367.337 74.5228 367.333 74.9496 367.378 75.4696L380.1 77.0175C380.287 76.5482 380.419 76.1456 380.507 75.8453C380.512 75.8298 380.516 75.8146 380.521 75.7997Z" fill="#FFFEFF" stroke="url(#paint35_linear_495_1)"/>
<path d="M352.62 36.8302C353.252 37.9386 353.995 38.8891 354.842 39.5948L354.842 39.5947L354.848 39.6002C357.44 41.8351 359.967 43.2074 363.139 43.9619C366.328 44.7205 370.192 44.8605 375.466 44.5875C380.816 44.3107 386.975 45.1404 391.978 46.3803C394.481 47.0005 396.71 47.727 398.413 48.4775C399.265 48.8524 399.996 49.2383 400.569 49.6265C401.13 50.0071 401.587 50.422 401.827 50.8719C402.114 51.4109 402.779 51.9229 403.729 52.3814C404.661 52.8313 405.788 53.1921 406.889 53.4731C407.987 53.7534 409.043 53.9501 409.825 54.0769C410.153 54.13 410.433 54.1707 410.646 54.2C410.665 54.0964 410.686 53.9761 410.709 53.8401C410.8 53.3106 410.922 52.5436 411.048 51.597C411.3 49.7029 411.565 47.0942 411.622 44.2333C411.678 41.3703 411.525 38.2682 410.945 35.3826C410.364 32.4928 409.362 29.8561 407.747 27.891L407.745 27.8895C405.007 24.5311 400.828 22.291 395.909 20.8239C391.149 19.404 385.739 18.7205 380.368 18.4312V35.8302V36.3302V36.5127H379.868V36.8302H352.62Z" fill="#402B2B" stroke="url(#paint36_linear_495_1)"/>
<path d="M413.118 31.3368L413.117 31.333C412.244 27.4896 408.981 23.4772 404.471 20.2736C399.974 17.0789 394.311 14.7444 388.757 14.2067C383.213 13.6699 377.1 15.1022 372.116 17.2909C369.627 18.3838 367.435 19.6586 365.749 20.955C364.05 22.2616 362.914 23.5522 362.463 24.661C361.485 27.0626 360.944 30.0211 360.649 32.4011C360.503 33.5868 360.418 34.6202 360.37 35.3566C360.355 35.5856 360.344 35.7857 360.335 35.9526C360.646 35.9281 361.078 35.9055 361.634 35.9017C362.895 35.8929 364.795 35.9804 367.383 36.3602C372.548 37.118 380.452 39.0397 391.479 43.6832C398.03 44.2332 403.266 45.1446 406.872 45.9208C408.682 46.3105 410.081 46.6662 411.03 46.9249C411.421 47.0317 411.735 47.122 411.971 47.1914C412.041 46.901 412.136 46.4944 412.244 45.9953C412.476 44.9315 412.77 43.4492 413.019 41.7754C413.519 38.4079 413.824 34.3389 413.118 31.3368Z" fill="url(#paint37_linear_495_1)" stroke="url(#paint38_linear_495_1)"/>
<path d="M346.626 45.185L346.627 45.1799C347.24 41.9366 349.586 37.8792 353.261 34.6058C356.927 31.3407 361.876 28.8924 367.661 28.8034L346.626 45.185ZM346.626 45.185C346.501 45.8107 346.544 46.2476 346.642 46.5173C346.739 46.7814 346.874 46.8608 346.959 46.8812C347.05 46.9031 347.215 46.8889 347.426 46.7085C347.636 46.5281 347.866 46.1963 348.028 45.6697L348.028 45.6697M346.626 45.185L348.028 45.6697M348.028 45.6697L348.032 45.6587M348.028 45.6697L348.032 45.6587M348.032 45.6587C348.072 45.5381 348.118 45.3701 348.174 45.1641C348.46 44.1072 349.018 42.0492 350.516 40.2518C352.344 38.0573 355.52 36.2766 361.13 36.7442C363.945 36.9789 366.046 37.792 367.694 38.9095C369.338 40.0235 370.507 41.4232 371.48 42.7904C371.841 43.2986 372.18 43.8093 372.505 44.2976C372.615 44.463 372.723 44.6259 372.83 44.7852C373.256 45.421 373.662 46.0054 374.089 46.517C374.938 47.5357 375.833 48.2243 377.035 48.4249L377.035 48.4249M348.032 45.6587L377.035 48.4249M377.035 48.4249L377.041 48.4259M377.035 48.4249L377.041 48.4259M377.041 48.4259C379.464 48.8587 382.086 48.214 385.599 47.2721C385.763 47.2281 385.929 47.1836 386.097 47.1385C389.369 46.259 393.331 45.1942 398.402 44.6478M377.041 48.4259L398.402 44.6478M398.402 44.6478C397.077 39.4849 392.53 35.5233 386.749 32.8388C380.781 30.0677 373.608 28.7132 367.661 28.8034L398.402 44.6478Z" fill="url(#paint39_linear_495_1)" stroke="url(#paint40_linear_495_1)"/>
<path d="M362.864 46.8348V47.1484C362.989 47.1514 363.136 47.1555 363.302 47.1612C363.887 47.1814 364.71 47.2217 365.666 47.3023C367.399 47.4486 369.588 47.729 371.585 48.2704L371.673 47.3106C367.58 46.4987 364.177 46.7411 362.864 46.8348Z" fill="#402B2B" stroke="url(#paint41_linear_495_1)"/>
<path d="M384.742 48.0204L384.363 48.9669C384.494 48.9973 384.649 49.032 384.826 49.0711C384.924 49.0928 385.029 49.1156 385.138 49.1397C385.734 49.2704 386.494 49.4373 387.327 49.6409C389.126 50.0804 391.319 50.703 392.986 51.5346L393.238 51.094C391.539 50.0721 389.462 49.3043 387.726 48.781C386.792 48.4997 385.966 48.2916 385.362 48.1541C385.114 48.0975 384.905 48.053 384.742 48.0204Z" fill="#402B2B" stroke="url(#paint42_linear_495_1)"/>
<path d="M367.858 68.1217C368.545 68.9624 369.591 69.3446 370.543 69.5044C370.501 69.4896 370.457 69.4747 370.413 69.4598C369.487 69.1511 368.802 68.5796 368.397 67.9587C368.014 67.3718 367.825 66.6347 368.109 66.0439C368.259 65.6867 368.581 65.395 368.901 65.1595C369.242 64.908 369.666 64.6611 370.101 64.4204C370.293 64.3141 370.488 64.2087 370.682 64.1037C371.394 63.7188 372.097 63.3385 372.641 62.9302C372.915 62.7246 373.181 62.36 373.423 61.8752C373.473 61.775 373.521 61.6715 373.568 61.5657C373.294 61.922 372.982 62.2747 372.676 62.4671C372.068 62.9208 371.448 63.2617 370.403 63.8366C370.143 63.9797 369.856 64.1372 369.537 64.3145C368.741 64.7573 367.97 65.3423 367.583 66.0008C367.395 66.3198 367.306 66.641 367.331 66.9695C367.356 67.2977 367.498 67.6822 367.858 68.1217Z" fill="#D87C60" stroke="url(#paint43_linear_495_1)"/>
<path d="M383.288 60.4111C383.288 62.0559 384.428 63.3773 385.705 63.3773C386.998 63.3773 388.123 62.2201 388.123 60.4111C388.123 58.7662 386.983 57.4449 385.705 57.4449C384.413 57.4449 383.288 58.6021 383.288 60.4111Z" fill="#402B2B" stroke="url(#paint44_linear_495_1)"/>
<path d="M363.229 58.0397C363.229 59.6845 364.369 61.0058 365.647 61.0058C366.939 61.0058 368.064 59.8487 368.064 58.0397C368.064 56.4065 366.94 55.0923 365.674 55.0737C364.321 55.2391 363.229 56.4586 363.229 58.0397Z" fill="#402B2B" stroke="url(#paint45_linear_495_1)"/>
<path d="M279.003 135.663L288.384 153.168L284.138 155.443L274.757 137.938C274.129 136.766 274.57 135.306 275.742 134.677C276.915 134.049 278.375 134.49 279.003 135.663Z" fill="white" stroke="url(#paint46_linear_495_1)"/>
<path d="M276.849 141.759L281.05 139.507L291.569 159.135L287.367 161.387L276.849 141.759Z" fill="#822626" stroke="url(#paint47_linear_495_1)"/>
<path d="M351.156 193.483C349.252 189.673 349.396 186.622 349.772 185.189C350.864 185.873 352.312 186.896 353.61 188.055C354.369 188.734 355.067 189.451 355.611 190.166C356.159 190.886 356.529 191.576 356.668 192.203C356.966 193.543 356.784 195.099 356.411 196.532C356.11 197.682 355.695 198.719 355.344 199.447C355.049 199.221 354.627 198.829 354.106 198.202C353.292 197.223 352.271 195.712 351.156 193.483Z" fill="url(#paint48_linear_495_1)" stroke="url(#paint49_linear_495_1)"/>
<path d="M258.705 156.316H320.003C321.998 156.316 323.755 157.63 324.319 159.544L347.147 237.025C347.996 239.908 345.835 242.797 342.83 242.797H281.532C279.537 242.797 277.78 241.483 277.216 239.569L254.389 162.087C253.539 159.205 255.7 156.316 258.705 156.316Z" fill="white" stroke="url(#paint50_linear_495_1)"/>
<path d="M257.494 152.5H318.873C320.915 152.5 322.701 153.875 323.223 155.85L346.353 243.331C347.107 246.186 344.955 248.981 342.002 248.981H280.623C278.581 248.981 276.795 247.606 276.273 245.632L253.143 158.15C252.389 155.296 254.541 152.5 257.494 152.5Z" fill="url(#paint51_linear_495_1)" stroke="url(#paint52_linear_495_1)"/>
<mask id="path-74-inside-1_495_1" fill="white">
<path fill-rule="evenodd" clip-rule="evenodd" d="M416.341 191.944C429.653 172.606 431.477 114.046 431.477 114.046C419.228 115.639 413.378 127.764 409.62 135.552C407.783 139.359 406.446 142.13 405.106 142.13L399.465 177.992L343.054 188.065C343.007 188.13 342.961 188.195 342.915 188.259C340.138 188.331 330.493 188.875 324.194 192.886C324.194 192.886 320.932 195.332 322.807 197.046C323.704 198.025 323.418 199.086 323.132 200.146C322.847 201.206 322.561 202.267 323.458 203.246C324.214 204.073 324.333 204.927 324.449 205.769C324.608 206.922 324.764 208.048 326.556 209.04C326.556 209.04 326.229 211.65 328.594 212.712C328.701 212.76 328.814 212.812 328.933 212.865C331.431 213.99 336.304 216.184 337.238 215.328C337.589 215.006 338.465 214.37 339.448 213.656C341.205 212.379 343.303 210.855 343.356 210.437C343.438 209.784 343.275 208.642 341.154 208.478C341.154 208.478 343.193 208.071 345.314 206.604C347.517 205.3 349.883 201.875 349.883 201.875L352.028 196.974C404.294 201.429 416.341 191.944 416.341 191.944Z"/>
</mask>
<path fill-rule="evenodd" clip-rule="evenodd" d="M416.341 191.944C429.653 172.606 431.477 114.046 431.477 114.046C419.228 115.639 413.378 127.764 409.62 135.552C407.783 139.359 406.446 142.13 405.106 142.13L399.465 177.992L343.054 188.065C343.007 188.13 342.961 188.195 342.915 188.259C340.138 188.331 330.493 188.875 324.194 192.886C324.194 192.886 320.932 195.332 322.807 197.046C323.704 198.025 323.418 199.086 323.132 200.146C322.847 201.206 322.561 202.267 323.458 203.246C324.214 204.073 324.333 204.927 324.449 205.769C324.608 206.922 324.764 208.048 326.556 209.04C326.556 209.04 326.229 211.65 328.594 212.712C328.701 212.76 328.814 212.812 328.933 212.865C331.431 213.99 336.304 216.184 337.238 215.328C337.589 215.006 338.465 214.37 339.448 213.656C341.205 212.379 343.303 210.855 343.356 210.437C343.438 209.784 343.275 208.642 341.154 208.478C341.154 208.478 343.193 208.071 345.314 206.604C347.517 205.3 349.883 201.875 349.883 201.875L352.028 196.974C404.294 201.429 416.341 191.944 416.341 191.944Z" fill="url(#paint53_linear_495_1)"/>
<path d="M431.477 114.046L431.348 113.054L432.513 112.903L432.476 114.077L431.477 114.046ZM416.341 191.944L417.165 192.511L417.079 192.636L416.96 192.73L416.341 191.944ZM409.62 135.552L408.719 135.118L408.719 135.118L409.62 135.552ZM405.106 142.13L404.118 141.975L404.251 141.13H405.106V142.13ZM399.465 177.992L400.453 178.147L400.342 178.851L399.641 178.976L399.465 177.992ZM343.054 188.065L342.244 187.479L342.481 187.152L342.878 187.081L343.054 188.065ZM342.915 188.259L343.73 188.839L343.44 189.245L342.941 189.258L342.915 188.259ZM324.194 192.886L323.595 192.086L323.625 192.063L323.657 192.043L324.194 192.886ZM322.807 197.046L323.482 196.308L323.514 196.338L323.544 196.371L322.807 197.046ZM323.132 200.146L322.167 199.886L322.167 199.886L323.132 200.146ZM323.458 203.246L322.72 203.922L322.72 203.922L323.458 203.246ZM324.449 205.769L323.458 205.905L323.458 205.905L324.449 205.769ZM326.556 209.04L327.04 208.165L327.632 208.493L327.548 209.164L326.556 209.04ZM328.594 212.712L328.184 213.625L328.184 213.625L328.594 212.712ZM328.933 212.865L328.522 213.777L328.522 213.777L328.933 212.865ZM337.238 215.328L336.562 214.591L336.562 214.591L337.238 215.328ZM339.448 213.656L338.861 212.847L338.861 212.847L339.448 213.656ZM343.356 210.437L344.348 210.561L344.348 210.561L343.356 210.437ZM341.154 208.478L341.077 209.475L340.959 207.497L341.154 208.478ZM345.314 206.604L344.745 205.781L344.774 205.761L344.805 205.743L345.314 206.604ZM349.883 201.875L350.799 202.276L350.76 202.364L350.705 202.443L349.883 201.875ZM352.028 196.974L351.112 196.573L351.399 195.916L352.113 195.977L352.028 196.974ZM431.477 114.046C432.476 114.077 432.476 114.077 432.476 114.078C432.476 114.078 432.476 114.079 432.476 114.08C432.476 114.082 432.476 114.085 432.476 114.089C432.475 114.096 432.475 114.107 432.475 114.121C432.474 114.15 432.472 114.193 432.47 114.249C432.466 114.362 432.46 114.529 432.452 114.747C432.435 115.183 432.409 115.824 432.371 116.646C432.295 118.291 432.171 120.66 431.982 123.563C431.602 129.369 430.956 137.313 429.893 145.867C428.831 154.417 427.349 163.593 425.293 171.856C423.242 180.095 420.598 187.524 417.165 192.511L415.518 191.377C418.741 186.695 421.316 179.553 423.352 171.373C425.381 163.217 426.851 154.127 427.909 145.62C428.965 137.116 429.608 129.212 429.986 123.433C430.175 120.544 430.298 118.187 430.373 116.554C430.411 115.737 430.437 115.101 430.454 114.67C430.462 114.455 430.468 114.29 430.472 114.18C430.473 114.125 430.475 114.083 430.476 114.056C430.476 114.042 430.477 114.031 430.477 114.025C430.477 114.021 430.477 114.019 430.477 114.017C430.477 114.016 430.477 114.016 430.477 114.015C430.477 114.015 430.477 114.015 431.477 114.046ZM408.719 135.118C410.592 131.237 413.041 126.151 416.592 121.84C420.157 117.513 424.891 113.894 431.348 113.054L431.606 115.038C425.813 115.791 421.498 119.031 418.136 123.112C414.761 127.209 412.406 132.079 410.521 135.987L408.719 135.118ZM405.106 141.13C405.081 141.13 405.182 141.144 405.437 140.906C405.686 140.674 405.982 140.294 406.329 139.738C407.025 138.627 407.791 137.041 408.719 135.118L410.521 135.987C409.612 137.87 408.792 139.573 408.025 140.799C407.641 141.412 407.237 141.963 406.801 142.369C406.37 142.771 405.802 143.13 405.106 143.13V141.13ZM398.477 177.836L404.118 141.975L406.094 142.286L400.453 178.147L398.477 177.836ZM342.878 187.081L399.289 177.007L399.641 178.976L343.23 189.05L342.878 187.081ZM342.1 187.679C342.148 187.612 342.196 187.546 342.244 187.479L343.864 188.652C343.818 188.715 343.774 188.777 343.73 188.839L342.1 187.679ZM342.941 189.258C341.583 189.294 338.532 189.445 335.055 190.079C331.562 190.716 327.722 191.825 324.732 193.73L323.657 192.043C326.965 189.936 331.097 188.768 334.696 188.112C338.309 187.453 341.47 187.296 342.889 187.259L342.941 189.258ZM324.194 192.886C324.794 193.686 324.794 193.686 324.795 193.686C324.795 193.686 324.795 193.686 324.795 193.686C324.795 193.686 324.795 193.686 324.795 193.685C324.796 193.685 324.796 193.685 324.796 193.685C324.795 193.685 324.794 193.686 324.793 193.688C324.789 193.69 324.783 193.695 324.774 193.702C324.756 193.716 324.729 193.738 324.692 193.768C324.619 193.827 324.515 193.916 324.393 194.029C324.146 194.258 323.851 194.564 323.615 194.899C323.371 195.246 323.248 195.542 323.229 195.762C323.215 195.918 323.241 196.088 323.482 196.308L322.132 197.784C321.435 197.147 321.166 196.368 321.237 195.583C321.301 194.863 321.643 194.226 321.98 193.748C322.325 193.257 322.729 192.844 323.035 192.561C323.19 192.418 323.325 192.302 323.423 192.222C323.473 192.181 323.513 192.149 323.542 192.126C323.557 192.115 323.569 192.106 323.577 192.099C323.582 192.096 323.586 192.093 323.588 192.091C323.59 192.09 323.591 192.089 323.592 192.088C323.593 192.088 323.593 192.087 323.594 192.087C323.594 192.087 323.594 192.086 323.594 192.086C323.594 192.086 323.595 192.086 324.194 192.886ZM323.544 196.371C324.857 197.804 324.364 199.42 324.098 200.406L322.167 199.886C322.472 198.751 322.551 198.247 322.069 197.721L323.544 196.371ZM324.098 200.406C323.792 201.541 323.714 202.045 324.195 202.571L322.72 203.922C321.408 202.488 321.901 200.872 322.167 199.886L324.098 200.406ZM324.195 202.571C325.181 203.648 325.323 204.791 325.439 205.632L323.458 205.905C323.342 205.064 323.248 204.497 322.72 203.922L324.195 202.571ZM325.439 205.632C325.522 206.23 325.586 206.632 325.779 207.007C325.955 207.35 326.284 207.747 327.04 208.165L326.071 209.915C325.036 209.342 324.39 208.68 324.001 207.922C323.628 207.198 323.535 206.46 323.458 205.905L325.439 205.632ZM326.556 209.04C327.548 209.164 327.548 209.164 327.548 209.163C327.548 209.163 327.548 209.163 327.548 209.163C327.548 209.162 327.548 209.162 327.548 209.161C327.548 209.16 327.548 209.159 327.549 209.159C327.549 209.158 327.549 209.157 327.549 209.157C327.549 209.157 327.549 209.159 327.548 209.163C327.547 209.171 327.546 209.188 327.544 209.213C327.542 209.262 327.539 209.341 327.541 209.44C327.546 209.643 327.572 209.919 327.653 210.215C327.81 210.792 328.162 211.422 329.003 211.8L328.184 213.625C326.661 212.941 325.994 211.734 325.723 210.741C325.59 210.252 325.549 209.809 325.542 209.489C325.538 209.327 325.542 209.193 325.548 209.096C325.551 209.047 325.554 209.007 325.557 208.976C325.558 208.961 325.56 208.948 325.561 208.938C325.561 208.933 325.562 208.929 325.562 208.925C325.562 208.923 325.563 208.922 325.563 208.92C325.563 208.919 325.563 208.918 325.563 208.918C325.563 208.917 325.563 208.917 325.563 208.917C325.563 208.916 325.563 208.916 326.556 209.04ZM329.003 211.8C329.111 211.848 329.225 211.9 329.344 211.953L328.522 213.777C328.404 213.723 328.291 213.672 328.184 213.625L329.003 211.8ZM329.344 211.953C330.6 212.519 332.404 213.331 334.005 213.896C334.81 214.181 335.519 214.387 336.059 214.476C336.331 214.52 336.517 214.527 336.629 214.518C336.758 214.507 336.679 214.484 336.562 214.591L337.914 216.065C337.563 216.386 337.128 216.482 336.802 216.51C336.459 216.54 336.091 216.508 335.735 216.449C335.021 216.332 334.181 216.08 333.339 215.782C331.645 215.184 329.764 214.336 328.522 213.777L329.344 211.953ZM336.562 214.591C336.968 214.219 337.911 213.537 338.861 212.847L340.036 214.465C339.02 215.203 338.211 215.793 337.913 216.065L336.562 214.591ZM338.861 212.847C339.744 212.205 340.69 211.518 341.422 210.94C341.789 210.649 342.082 210.403 342.279 210.215C342.379 210.119 342.433 210.058 342.457 210.027C342.515 209.953 342.394 210.071 342.364 210.313L344.348 210.561C344.305 210.907 344.107 211.165 344.033 211.259C343.925 211.397 343.793 211.533 343.662 211.659C343.396 211.914 343.044 212.207 342.661 212.509C341.891 213.117 340.91 213.83 340.036 214.465L338.861 212.847ZM342.364 210.313C342.388 210.117 342.358 209.975 342.286 209.88C342.224 209.8 341.973 209.544 341.077 209.475L341.232 207.481C342.456 207.576 343.347 207.973 343.876 208.668C344.395 209.348 344.405 210.104 344.348 210.561L342.364 210.313ZM341.154 208.478C340.959 207.497 340.959 207.497 340.958 207.497C340.958 207.497 340.958 207.497 340.958 207.497C340.958 207.497 340.957 207.497 340.957 207.497C340.957 207.497 340.957 207.497 340.956 207.497C340.956 207.497 340.956 207.497 340.957 207.497C340.958 207.497 340.962 207.496 340.967 207.495C340.977 207.493 340.994 207.489 341.019 207.483C341.068 207.472 341.144 207.453 341.244 207.426C341.443 207.372 341.737 207.284 342.094 207.152C342.81 206.889 343.77 206.456 344.745 205.781L345.883 207.426C344.737 208.219 343.617 208.723 342.784 209.029C342.367 209.183 342.018 209.288 341.769 209.356C341.644 209.39 341.545 209.415 341.473 209.431C341.438 209.439 341.41 209.446 341.389 209.45C341.378 209.452 341.37 209.454 341.363 209.456C341.36 209.456 341.357 209.457 341.355 209.457C341.354 209.458 341.353 209.458 341.352 209.458C341.352 209.458 341.351 209.458 341.351 209.458C341.351 209.458 341.351 209.458 341.35 209.458C341.35 209.458 341.35 209.458 341.154 208.478ZM344.805 205.743C345.754 205.181 346.807 204.109 347.663 203.103C348.08 202.612 348.431 202.16 348.679 201.83C348.802 201.666 348.899 201.533 348.964 201.442C348.997 201.396 349.021 201.362 349.037 201.339C349.046 201.327 349.052 201.319 349.055 201.313C349.057 201.31 349.058 201.309 349.059 201.307C349.06 201.307 349.06 201.307 349.06 201.306C349.06 201.306 349.06 201.306 349.06 201.306C349.06 201.306 349.06 201.306 349.06 201.307C349.06 201.307 349.06 201.307 349.883 201.875C350.705 202.443 350.705 202.444 350.705 202.444C350.705 202.444 350.705 202.444 350.705 202.444C350.705 202.444 350.705 202.445 350.704 202.445C350.704 202.446 350.703 202.446 350.702 202.448C350.701 202.45 350.699 202.453 350.696 202.457C350.691 202.464 350.683 202.475 350.673 202.489C350.654 202.517 350.626 202.557 350.589 202.608C350.516 202.709 350.411 202.854 350.278 203.031C350.013 203.384 349.636 203.87 349.186 204.398C348.308 205.431 347.077 206.723 345.824 207.464L344.805 205.743ZM348.966 201.474L351.112 196.573L352.944 197.375L350.799 202.276L348.966 201.474ZM416.341 191.944C416.96 192.73 416.959 192.73 416.958 192.731C416.958 192.731 416.957 192.732 416.956 192.733C416.954 192.734 416.953 192.735 416.951 192.737C416.947 192.74 416.942 192.743 416.937 192.748C416.926 192.756 416.912 192.766 416.895 192.779C416.861 192.803 416.814 192.837 416.754 192.877C416.634 192.959 416.459 193.071 416.224 193.207C415.754 193.481 415.041 193.853 414.03 194.278C412.011 195.128 408.803 196.193 403.971 197.112C394.311 198.948 378.137 200.203 351.943 197.97L352.113 195.977C378.184 198.199 394.167 196.939 403.598 195.147C408.311 194.251 411.382 193.223 413.254 192.435C414.19 192.04 414.827 191.706 415.219 191.478C415.416 191.364 415.551 191.276 415.633 191.221C415.674 191.194 415.701 191.174 415.716 191.163C415.723 191.158 415.727 191.155 415.728 191.154C415.729 191.153 415.729 191.154 415.728 191.154C415.727 191.155 415.727 191.155 415.726 191.156C415.726 191.156 415.725 191.157 415.725 191.157C415.724 191.157 415.723 191.158 416.341 191.944Z" fill="url(#paint54_linear_495_1)" mask="url(#path-74-inside-1_495_1)"/>
<path d="M396.409 167.774L396.409 167.774L395.12 174.524L395.059 174.847L394.738 174.919L350.519 184.725C352.794 187.096 356.195 192.374 356.058 199.318C363.051 200.302 374.13 201.281 385.192 201.094C396.499 200.903 407.683 199.494 414.498 195.706C416.929 193.789 422.516 186.814 424.968 174.334L424.972 174.312L424.978 174.291C433.084 146.411 433.839 130.48 432.599 121.549C431.98 117.087 430.864 114.383 429.927 112.808C429.458 112.021 429.033 111.514 428.734 111.209C428.604 111.077 428.498 110.983 428.422 110.92C419.639 112.16 412.931 119.545 408.376 126.786C406.091 130.418 404.37 133.98 403.22 136.635C402.646 137.962 402.214 139.061 401.927 139.827C401.783 140.21 401.675 140.51 401.604 140.713C401.568 140.815 401.542 140.892 401.524 140.944L401.508 140.99L396.409 167.774ZM428.29 110.819L428.291 110.82C428.29 110.819 428.289 110.819 428.29 110.819Z" fill="url(#paint55_linear_495_1)" stroke="url(#paint56_linear_495_1)"/>
<path d="M242.078 320.949L242.08 320.955C242.277 321.81 242.409 322.669 242.544 323.548L242.544 323.548L242.546 323.561C243.185 327.08 243.519 330.785 243.546 334.5H112.55C112.577 330.795 112.91 327.153 113.548 323.572C113.649 323.129 113.734 322.687 113.817 322.256L113.818 322.252C113.902 321.812 113.985 321.383 114.083 320.955L114.083 320.955L114.085 320.949C115.419 314.799 117.621 308.984 120.556 303.637C120.795 303.259 121.017 302.867 121.231 302.487L121.234 302.482C121.454 302.092 121.666 301.716 121.894 301.358L121.898 301.351L121.903 301.343C125.24 295.662 129.514 290.577 134.393 286.158C134.453 286.105 134.513 286.052 134.573 285.998C135.132 285.5 135.728 284.968 136.324 284.491L136.324 284.491L136.332 284.485C141.538 280.14 147.478 276.596 153.886 274.054C154.294 273.917 154.701 273.765 155.097 273.616L155.102 273.614C155.507 273.462 155.902 273.314 156.296 273.182L156.296 273.182L156.305 273.179C162.714 270.906 169.592 269.634 176.807 269.5H176.807H176.81H176.812H176.814H176.817H176.819H176.822H176.824H176.826H176.829H176.831H176.833H176.836H176.838H176.841H176.843H176.845H176.848H176.85H176.853H176.855H176.857H176.86H176.862H176.865H176.867H176.869H176.872H176.874H176.877H176.879H176.881H176.884H176.886H176.889H176.891H176.894H176.896H176.898H176.901H176.903H176.906H176.908H176.911H176.913H176.915H176.918H176.92H176.923H176.925H176.928H176.93H176.932H176.935H176.937H176.94H176.942H176.945H176.947H176.95H176.952H176.954H176.957H176.959H176.962H176.964H176.967H176.969H176.972H176.974H176.977H176.979H176.981H176.984H176.986H176.989H176.991H176.994H176.996H176.999H177.001H177.004H177.006H177.009H177.011H177.014H177.016H177.019H177.021H177.024H177.026H177.029H177.031H177.033H177.036H177.038H177.041H177.043H177.046H177.048H177.051H177.053H177.056H177.058H177.061H177.063H177.066H177.068H177.071H177.073H177.076H177.078H177.081H177.083H177.086H177.088H177.091H177.093H177.096H177.098H177.101H177.103H177.106H177.108H177.111H177.113H177.116H177.119H177.121H177.124H177.126H177.129H177.131H177.134H177.136H177.139H177.141H177.144H177.146H177.149H177.151H177.154H177.156H177.159H177.161H177.164H177.166H177.169H177.171H177.174H177.177H177.179H177.182H177.184H177.187H177.189H177.192H177.194H177.197H177.199H177.202H177.204H177.207H177.209H177.212H177.215H177.217H177.22H177.222H177.225H177.227H177.23H177.232H177.235H177.237H177.24H177.243H177.245H177.248H177.25H177.253H177.255H177.258H177.26H177.263H177.265H177.268H177.271H177.273H177.276H177.278H177.281H177.283H177.286H177.288H177.291H177.294H177.296H177.299H177.301H177.304H177.306H177.309H177.311H177.314H177.317H177.319H177.322H177.324H177.327H177.329H177.332H177.334H177.337H177.34H177.342H177.345H177.347H177.35H177.352H177.355H177.357H177.36H177.363H177.365H177.368H177.37H177.373H177.375H177.378H177.381H177.383H177.386H177.388H177.391H177.393H177.396H177.398H177.401H177.404H177.406H177.409H177.411H177.414H177.416H177.419H177.422H177.424H177.427H177.429H177.432H177.434H177.437H177.439H177.442H177.445H177.447H177.45H177.452H177.455H177.457H177.46H177.463H177.465H177.468H177.47H177.473H177.475H177.478H177.48H177.483H177.486H177.488H177.491H177.493H177.496H177.498H177.501H177.504H177.506H177.509H177.511H177.514H177.516H177.519H177.521H177.524H177.527H177.529H177.532H177.534H177.537H177.539H177.542H177.545H177.547H177.55H177.552H177.555H177.557H177.56H177.562H177.565H177.568H177.57H177.573H177.575H177.578H177.58H177.583H177.585H177.588H177.591H177.593H177.596H177.598H177.601H177.603H177.606H177.608H177.611H177.614H177.616H177.619H177.621H177.624H177.626H177.629H177.631H177.634H177.636H177.639H177.642H177.644H177.647H177.649H177.652H177.654H177.657H177.659H177.662H177.664H177.667H177.67H177.672H177.675H177.677H177.68H177.682H177.685H177.687H177.69H177.692H177.695H177.697H177.7H177.702H177.705H177.708H177.71H177.713H177.715H177.718H177.72H177.723H177.725H177.728H177.73H177.733H177.735H177.738H177.74H177.743H177.745H177.748H177.75H177.753H177.756H177.758H177.761H177.763H177.766H177.768H177.771H177.773H177.776H177.778H177.781H177.783H177.786H177.788H177.791H177.793H177.796H177.798H177.801H177.803H177.806H177.808H177.811H177.813H177.816H177.818H177.821H177.823H177.826H177.828H177.831H177.833H177.836H177.838H177.841H177.843H177.846H177.848H177.851H177.853H177.856H177.858H177.861H177.863H177.866H177.868H177.87H177.873H177.875H177.878H177.88H177.883H177.885H177.888H177.89H177.893H177.895H177.898H177.9H177.903H177.905H177.908H177.91H177.912H177.915H177.917H177.92H177.922H177.925H177.927H177.93H177.932H177.935H177.937H177.939H177.942H177.944H177.947H177.949H177.952H177.954H177.957H177.959H177.961H177.964H177.966H177.969H177.971H177.974H177.976H177.978H177.981H177.983H177.986H177.988H177.991H177.993H177.995H177.998H178H178.003H178.005H178.007H178.01H178.012H178.015H178.017H178.019H178.022H178.024H178.027H178.029H178.031H178.034H178.036H178.039H178.041H178.043H178.046H178.048H178.051H178.053H178.055H178.058H178.06H178.063H178.065H178.067H178.07H178.072H178.074H178.077H178.079H178.082H178.084H178.086H178.089H178.091H178.093H178.096H178.098H178.1H178.103H178.105H178.108H178.11H178.112H178.115H178.117H178.12H178.122H178.124H178.127H178.129H178.132H178.134H178.136H178.139H178.141H178.144H178.146H178.148H178.151H178.153H178.156H178.158H178.16H178.163H178.165H178.168H178.17H178.173H178.175H178.177H178.18H178.182H178.185H178.187H178.189H178.192H178.194H178.197H178.199H178.202H178.204H178.207H178.209H178.211H178.214H178.216H178.219H178.221H178.224H178.226H178.229H178.231H178.233H178.236H178.238H178.241H178.243H178.246H178.248H178.251H178.253H178.256H178.258H178.26H178.263H178.265H178.268H178.27H178.273H178.275H178.278H178.28H178.283H178.285H178.288H178.29H178.293H178.295H178.298H178.3H178.302H178.305H178.307H178.31H178.312H178.315H178.317H178.32H178.322H178.325H178.327H178.33H178.332H178.335H178.337H178.34H178.342H178.345H178.347H178.35H178.352H178.355H178.357H178.36H178.362H178.365H178.367H178.37H178.372H178.375H178.377H178.38H178.382H178.385H178.387H178.39H178.392H178.395H178.397H178.4H178.402H178.405H178.408H178.41H178.413H178.415H178.418H178.42H178.423H178.425H178.428H178.43H178.433H178.435H178.438H178.44H178.443H178.445H178.448H178.45H178.453H178.455H178.458H178.461H178.463H178.466H178.468H178.471H178.473H178.476H178.478H178.481H178.483H178.486H178.488H178.491H178.494H178.496H178.499H178.501H178.504H178.506H178.509H178.511H178.514H178.516H178.519H178.521H178.524H178.527H178.529H178.532H178.534H178.537H178.539H178.542H178.544H178.547H178.55H178.552H178.555H178.557H178.56H178.562H178.565H178.567H178.57H178.572H178.575H178.578H178.58H178.583H178.585H178.588H178.59H178.593H178.595H178.598H178.601H178.603H178.606H178.608H178.611H178.613H178.616H178.618H178.621H178.624H178.626H178.629H178.631H178.634H178.636H178.639H178.642H178.644H178.647H178.649H178.652H178.654H178.657H178.659H178.662H178.665H178.667H178.67H178.672H178.675H178.677H178.68H178.683H178.685H178.688H178.69H178.693H178.695H178.698H178.7H178.703H178.706H178.708H178.711H178.713H178.716H178.718H178.721H178.724H178.726H178.729H178.731H178.734H178.736H178.739H178.741H178.744H178.747H178.749H178.752H178.754H178.757H178.759H178.762H178.765H178.767H178.77H178.772H178.775H178.777H178.78H178.782H178.785H178.788H178.79H178.793H178.795H178.798H178.8H178.803H178.806H178.808H178.811H178.813H178.816H178.818H178.821H178.823H178.826H178.829H178.831H178.834H178.836H178.839H178.841H178.844H178.846H178.849H178.852H178.854H178.857H178.859H178.862H178.864H178.867H178.869H178.872H178.875H178.877H178.88H178.882H178.885H178.887H178.89H178.892H178.895H178.898H178.9H178.903H178.905H178.908H178.91H178.913H178.915H178.918H178.92H178.923H178.926H178.928H178.931H178.933H178.936H178.938H178.941H178.943H178.946H178.948H178.951H178.954H178.956H178.959H178.961H178.964H178.966H178.969H178.971H178.974H178.976H178.979H178.981H178.984H178.986H178.989H178.992H178.994H178.997H178.999H179.002H179.004H179.007H179.009H179.012H179.014H179.017H179.019H179.022H179.024H179.027H179.029H179.032H179.034H179.037H179.039H179.042H179.044H179.047H179.05H179.052H179.055H179.057H179.06H179.062H179.065H179.067H179.07H179.072H179.075H179.077H179.08H179.082H179.085H179.087H179.09H179.092H179.095H179.097H179.1H179.102H179.105H179.107H179.11H179.112H179.115H179.117H179.12H179.122H179.125H179.127H179.13H179.132H179.134H179.137H179.139H179.142H179.144H179.147H179.149H179.152H179.154H179.157H179.159H179.162H179.164H179.167H179.169H179.172H179.174H179.177H179.179H179.182H179.184H179.186H179.189H179.191H179.194H179.196H179.199H179.201H179.204H179.206H179.209H179.211H179.213H179.216H179.218H179.221H179.223H179.226H179.228H179.231H179.233H179.235H179.238H179.24H179.243H179.245H179.248H179.25H179.252H179.255H179.257H179.26H179.262H179.265H179.267H179.269H179.272H179.274H179.277H179.279H179.282H179.284H179.286H179.289H179.291H179.294H179.296H179.298H179.301H179.303H179.306H179.308H179.31H179.313H179.315H179.318H179.32H179.322H179.325H179.327H179.33H179.332H179.334H179.337H179.339H179.341H179.344H179.346H179.349H179.351H179.353H179.356C186.504 269.634 193.449 270.906 199.858 273.179L199.858 273.179L199.867 273.182C200.677 273.453 201.468 273.717 202.256 274.046L202.256 274.046L202.264 274.049C208.677 276.591 214.622 280.137 219.831 284.485L219.831 284.485L219.839 284.491C220.516 285.034 221.167 285.556 221.75 286.14L221.759 286.149L221.768 286.157C226.646 290.574 230.855 295.66 234.262 301.347L234.262 301.347L234.269 301.358C234.734 302.089 235.199 302.888 235.599 303.621L235.599 303.623C238.538 308.974 240.742 314.794 242.078 320.949Z" fill="#FCDDFF" stroke="url(#paint57_linear_495_1)"/>
<path d="M323.665 354.517L323.667 354.524C323.914 355.591 324.08 356.662 324.249 357.754L324.248 357.754L324.251 357.767C325.058 362.184 325.476 366.837 325.503 371.5H161.506C161.534 366.848 161.951 362.274 162.757 357.778C162.884 357.229 162.99 356.681 163.094 356.143L163.094 356.139C163.2 355.593 163.303 355.057 163.427 354.524L163.429 354.517C165.1 346.865 167.856 339.628 171.532 332.973C171.83 332.505 172.106 332.019 172.375 331.546L172.378 331.54C172.653 331.056 172.92 330.586 173.206 330.139L173.211 330.131L173.215 330.124C177.393 323.053 182.744 316.727 188.852 311.229C188.926 311.163 189.002 311.096 189.077 311.029C189.775 310.411 190.523 309.748 191.27 309.153L191.271 309.153L191.278 309.147C197.797 303.739 205.235 299.329 213.259 296.166C213.768 295.996 214.275 295.807 214.773 295.621L214.777 295.62C215.284 295.431 215.78 295.245 216.275 295.081L216.275 295.081L216.283 295.078C224.308 292.249 232.92 290.667 241.953 290.5H241.954H241.957H241.96H241.963H241.966H241.969H241.972H241.975H241.978H241.981H241.984H241.987H241.99H241.993H241.996H241.999H242.002H242.005H242.008H242.011H242.014H242.017H242.02H242.023H242.026H242.029H242.032H242.035H242.038H242.041H242.044H242.047H242.05H242.053H242.056H242.059H242.062H242.065H242.068H242.071H242.074H242.077H242.08H242.083H242.086H242.089H242.092H242.095H242.098H242.101H242.105H242.108H242.111H242.114H242.117H242.12H242.123H242.126H242.129H242.132H242.135H242.138H242.141H242.144H242.147H242.15H242.153H242.157H242.16H242.163H242.166H242.169H242.172H242.175H242.178H242.181H242.184H242.187H242.19H242.194H242.197H242.2H242.203H242.206H242.209H242.212H242.215H242.218H242.221H242.224H242.228H242.231H242.234H242.237H242.24H242.243H242.246H242.249H242.252H242.256H242.259H242.262H242.265H242.268H242.271H242.274H242.277H242.281H242.284H242.287H242.29H242.293H242.296H242.299H242.302H242.306H242.309H242.312H242.315H242.318H242.321H242.324H242.327H242.331H242.334H242.337H242.34H242.343H242.346H242.349H242.353H242.356H242.359H242.362H242.365H242.368H242.372H242.375H242.378H242.381H242.384H242.387H242.39H242.394H242.397H242.4H242.403H242.406H242.409H242.413H242.416H242.419H242.422H242.425H242.428H242.432H242.435H242.438H242.441H242.444H242.447H242.451H242.454H242.457H242.46H242.463H242.466H242.47H242.473H242.476H242.479H242.482H242.486H242.489H242.492H242.495H242.498H242.501H242.505H242.508H242.511H242.514H242.517H242.521H242.524H242.527H242.53H242.533H242.536H242.54H242.543H242.546H242.549H242.552H242.556H242.559H242.562H242.565H242.568H242.572H242.575H242.578H242.581H242.584H242.588H242.591H242.594H242.597H242.6H242.604H242.607H242.61H242.613H242.616H242.62H242.623H242.626H242.629H242.632H242.636H242.639H242.642H242.645H242.648H242.652H242.655H242.658H242.661H242.664H242.668H242.671H242.674H242.677H242.68H242.684H242.687H242.69H242.693H242.696H242.7H242.703H242.706H242.709H242.712H242.716H242.719H242.722H242.725H242.728H242.732H242.735H242.738H242.741H242.744H242.748H242.751H242.754H242.757H242.76H242.764H242.767H242.77H242.773H242.776H242.78H242.783H242.786H242.789H242.792H242.796H242.799H242.802H242.805H242.809H242.812H242.815H242.818H242.821H242.825H242.828H242.831H242.834H242.837H242.841H242.844H242.847H242.85H242.853H242.857H242.86H242.863H242.866H242.869H242.873H242.876H242.879H242.882H242.885H242.889H242.892H242.895H242.898H242.901H242.905H242.908H242.911H242.914H242.917H242.92H242.924H242.927H242.93H242.933H242.936H242.94H242.943H242.946H242.949H242.952H242.956H242.959H242.962H242.965H242.968H242.972H242.975H242.978H242.981H242.984H242.987H242.991H242.994H242.997H243H243.003H243.007H243.01H243.013H243.016H243.019H243.022H243.026H243.029H243.032H243.035H243.038H243.041H243.045H243.048H243.051H243.054H243.057H243.061H243.064H243.067H243.07H243.073H243.076H243.079H243.083H243.086H243.089H243.092H243.095H243.098H243.102H243.105H243.108H243.111H243.114H243.117H243.121H243.124H243.127H243.13H243.133H243.136H243.139H243.143H243.146H243.149H243.152H243.155H243.158H243.161H243.165H243.168H243.171H243.174H243.177H243.18H243.183H243.187H243.19H243.193H243.196H243.199H243.202H243.205H243.208H243.212H243.215H243.218H243.221H243.224H243.227H243.23H243.233H243.237H243.24H243.243H243.246H243.249H243.252H243.255H243.258H243.261H243.265H243.268H243.271H243.274H243.277H243.28H243.283H243.286H243.289H243.292H243.296H243.299H243.302H243.305H243.308H243.311H243.314H243.317H243.32H243.323H243.326H243.329H243.333H243.336H243.339H243.342H243.345H243.348H243.351H243.354H243.357H243.36H243.363H243.366H243.369H243.372H243.375H243.379H243.382H243.385H243.388H243.391H243.394H243.397H243.4H243.403H243.406H243.409H243.412H243.415H243.418H243.421H243.424H243.427H243.43H243.433H243.436H243.439H243.442H243.445H243.448H243.451H243.454H243.457H243.46H243.463H243.466H243.469H243.472H243.475H243.478H243.481H243.484H243.487H243.49H243.493H243.496H243.499H243.502H243.505H243.508H243.511H243.514H243.517H243.52H243.523H243.526H243.529H243.532H243.535H243.538H243.541H243.544H243.547H243.55H243.553H243.556H243.559H243.562H243.565H243.568H243.571H243.574H243.577H243.58H243.583H243.586H243.589H243.592H243.595H243.598H243.601H243.604H243.607H243.61H243.613H243.616H243.618H243.622H243.625H243.628H243.631H243.634H243.637H243.64H243.643H243.646H243.649H243.652H243.655H243.658H243.661H243.664H243.667H243.67H243.673H243.676H243.679H243.682H243.685H243.688H243.691H243.694H243.697H243.7H243.703H243.706H243.709H243.712H243.715H243.718H243.722H243.725H243.728H243.731H243.734H243.737H243.74H243.743H243.746H243.749H243.752H243.755H243.758H243.761H243.764H243.768H243.771H243.774H243.777H243.78H243.783H243.786H243.789H243.792H243.795H243.798H243.801H243.805H243.808H243.811H243.814H243.817H243.82H243.823H243.826H243.829H243.832H243.836H243.839H243.842H243.845H243.848H243.851H243.854H243.857H243.86H243.864H243.867H243.87H243.873H243.876H243.879H243.882H243.885H243.889H243.892H243.895H243.898H243.901H243.904H243.907H243.91H243.914H243.917H243.92H243.923H243.926H243.929H243.932H243.936H243.939H243.942H243.945H243.948H243.951H243.954H243.958H243.961H243.964H243.967H243.97H243.973H243.977H243.98H243.983H243.986H243.989H243.992H243.995H243.999H244.002H244.005H244.008H244.011H244.014H244.018H244.021H244.024H244.027H244.03H244.033H244.037H244.04H244.043H244.046H244.049H244.052H244.056H244.059H244.062H244.065H244.068H244.072H244.075H244.078H244.081H244.084H244.087H244.091H244.094H244.097H244.1H244.103H244.106H244.11H244.113H244.116H244.119H244.122H244.126H244.129H244.132H244.135H244.138H244.142H244.145H244.148H244.151H244.154H244.157H244.161H244.164H244.167H244.17H244.173H244.177H244.18H244.183H244.186H244.189H244.193H244.196H244.199H244.202H244.205H244.209H244.212H244.215H244.218H244.221H244.225H244.228H244.231H244.234H244.237H244.241H244.244H244.247H244.25H244.253H244.257H244.26H244.263H244.266H244.269H244.273H244.276H244.279H244.282H244.285H244.289H244.292H244.295H244.298H244.301H244.305H244.308H244.311H244.314H244.317H244.321H244.324H244.327H244.33H244.333H244.337H244.34H244.343H244.346H244.349H244.353H244.356H244.359H244.362H244.366H244.369H244.372H244.375H244.378H244.382H244.385H244.388H244.391H244.394H244.398H244.401H244.404H244.407H244.41H244.414H244.417H244.42H244.423H244.426H244.43H244.433H244.436H244.439H244.442H244.446H244.449H244.452H244.455H244.458H244.462H244.465H244.468H244.471H244.474H244.478H244.481H244.484H244.487H244.49H244.494H244.497H244.5H244.503H244.506H244.51H244.513H244.516H244.519H244.522H244.526H244.529H244.532H244.535H244.538H244.541H244.545H244.548H244.551H244.554H244.557H244.561H244.564H244.567H244.57H244.573H244.577H244.58H244.583H244.586H244.589H244.592H244.596H244.599H244.602H244.605H244.608H244.612H244.615H244.618H244.621H244.624H244.627H244.631H244.634H244.637H244.64H244.643H244.646H244.65H244.653H244.656H244.659H244.662H244.665H244.669H244.672H244.675H244.678H244.681H244.684H244.688H244.691H244.694H244.697H244.7H244.703H244.707H244.71H244.713H244.716H244.719H244.722H244.726H244.729H244.732H244.735H244.738H244.741H244.744H244.748H244.751H244.754H244.757H244.76H244.763H244.766H244.77H244.773H244.776H244.779H244.782H244.785H244.788H244.791H244.795H244.798H244.801H244.804H244.807H244.81H244.813H244.816H244.82H244.823H244.826H244.829H244.832H244.835H244.838H244.841H244.845H244.848H244.851H244.854H244.857H244.86H244.863H244.866H244.869H244.873H244.876H244.879H244.882H244.885H244.888H244.891H244.894H244.897H244.9H244.903H244.907H244.91H244.913H244.916H244.919H244.922H244.925H244.928H244.931H244.934H244.937H244.94H244.943H244.947H244.95H244.953H244.956H244.959H244.962H244.965H244.968H244.971H244.974H244.977H244.98H244.983H244.986H244.989H244.992H244.995H244.999H245.002H245.005H245.008H245.011H245.014H245.017H245.02H245.023H245.026H245.029H245.032H245.035H245.038H245.041H245.044H245.047H245.05H245.053H245.056H245.059H245.062H245.065H245.068H245.071H245.074H245.077H245.08H245.083H245.086H245.089H245.092H245.095H245.098H245.101H245.104H245.107H245.11H245.113H245.116H245.119H245.122H245.125H245.128H245.131H245.134H245.137H245.14H245.141C254.09 290.667 262.786 292.249 270.811 295.078L270.811 295.078L270.819 295.081C271.832 295.417 272.824 295.747 273.814 296.157L273.814 296.158L273.823 296.161C281.851 299.324 289.294 303.736 295.816 309.147L295.823 309.153C296.669 309.826 297.488 310.479 298.222 311.21L298.231 311.219L298.24 311.228C304.347 316.724 309.616 323.051 313.881 330.127L313.881 330.127L313.888 330.139C314.47 331.049 315.053 332.044 315.554 332.957L315.554 332.959C319.234 339.618 321.993 346.859 323.665 354.517Z" fill="white" stroke="url(#paint58_linear_495_1)"/>
<path d="M269.042 357.225L269.043 357.224C272.585 353.258 275.853 351.444 278.756 350.491C280.214 350.013 281.59 349.748 282.885 349.542C283.243 349.485 283.598 349.432 283.948 349.379C284.849 349.244 285.718 349.115 286.519 348.934C287.645 348.68 288.696 348.315 289.626 347.657C290.562 346.996 291.346 346.059 291.973 344.707C293.211 342.033 293.851 337.692 293.851 330.485C293.851 328.731 293.84 327.006 293.83 325.314C293.808 321.531 293.787 317.916 293.883 314.531C294.022 309.633 294.406 305.265 295.376 301.636C296.346 298.01 297.888 295.165 300.312 293.262C302.731 291.363 306.094 290.35 310.812 290.518C318.038 290.855 322.503 293.698 325.19 298.04C327.901 302.422 328.843 308.395 328.843 315.053C328.843 321.776 329.874 327.625 332.34 331.81C334.828 336.033 338.762 338.529 344.426 338.529C349.646 338.529 354.625 342.284 356.717 349.065C358.808 355.844 357.997 365.648 351.527 377.571L351.527 377.571L351.522 377.581C346.561 387.216 342.097 395.359 339.611 399.893C339.244 400.562 338.92 401.153 338.644 401.658H277.165C274.71 397.966 269.746 390.267 266.829 381.805C263.844 373.144 263.064 363.87 269.042 357.225Z" fill="#9056EE" stroke="url(#paint59_linear_495_1)"/>
<g opacity="0.2">
<mask id="path-80-inside-2_495_1" fill="white">
<path fill-rule="evenodd" clip-rule="evenodd" d="M314.946 342.487H311.861V385.495L298.902 368.209L296.434 370.061L311.861 390.639V402.158H314.946V369.664L328.018 353.444L325.617 351.506L314.946 364.747V342.487Z"/>
</mask>
<path fill-rule="evenodd" clip-rule="evenodd" d="M314.946 342.487H311.861V385.495L298.902 368.209L296.434 370.061L311.861 390.639V402.158H314.946V369.664L328.018 353.444L325.617 351.506L314.946 364.747V342.487Z" fill="white"/>
<path d="M311.861 342.487V341.487H310.861V342.487H311.861ZM314.946 342.487H315.946V341.487H314.946V342.487ZM311.861 385.495L311.061 386.095L312.861 388.496V385.495H311.861ZM298.902 368.209L299.702 367.609L299.102 366.808L298.302 367.409L298.902 368.209ZM296.434 370.061L295.833 369.261L295.034 369.861L295.633 370.66L296.434 370.061ZM311.861 390.639H312.861V390.306L312.661 390.04L311.861 390.639ZM311.861 402.158H310.861V403.158H311.861V402.158ZM314.946 402.158V403.158H315.946V402.158H314.946ZM314.946 369.664L314.167 369.036L313.946 369.311V369.664H314.946ZM328.018 353.444L328.797 354.071L329.424 353.293L328.646 352.665L328.018 353.444ZM325.617 351.506L326.244 350.728L325.466 350.1L324.838 350.879L325.617 351.506ZM314.946 364.747H313.946V367.581L315.724 365.374L314.946 364.747ZM311.861 343.487H314.946V341.487H311.861V343.487ZM312.861 385.495V342.487H310.861V385.495H312.861ZM298.102 368.808L311.061 386.095L312.661 384.895L299.702 367.609L298.102 368.808ZM297.034 370.86L299.502 369.009L298.302 367.409L295.833 369.261L297.034 370.86ZM312.661 390.04L297.234 369.461L295.633 370.66L311.061 391.239L312.661 390.04ZM312.861 402.158V390.639H310.861V402.158H312.861ZM314.946 401.158H311.861V403.158H314.946V401.158ZM313.946 369.664V402.158H315.946V369.664H313.946ZM315.724 370.291L328.797 354.071L327.24 352.816L314.167 369.036L315.724 370.291ZM328.646 352.665L326.244 350.728L324.989 352.285L327.39 354.222L328.646 352.665ZM324.838 350.879L314.167 364.119L315.724 365.374L326.395 352.134L324.838 350.879ZM313.946 342.487V364.747H315.946V342.487H313.946Z" fill="url(#paint60_linear_495_1)" mask="url(#path-80-inside-2_495_1)"/>
</g>
<rect x="264.553" y="402.5" width="89" height="49" fill="#FCDDFF" stroke="url(#paint61_linear_495_1)"/>
<defs>
<linearGradient id="paint0_linear_495_1" x1="263.501" y1="332.438" x2="356.047" y2="-12.9514" gradientUnits="userSpaceOnUse">
<stop stop-color="#5200D9"/>
<stop offset="1" stop-color="white" stop-opacity="0"/>
</linearGradient>
<linearGradient id="paint1_linear_495_1" x1="263.447" y1="332.438" x2="355.994" y2="-12.9514" gradientUnits="userSpaceOnUse">
<stop stop-color="#5200D9"/>
<stop offset="1" stop-color="white" stop-opacity="0"/>
</linearGradient>
<linearGradient id="paint2_linear_495_1" x1="282" y1="217.584" x2="282" y2="415.302" gradientUnits="userSpaceOnUse">
<stop stop-color="#5200D9"/>
<stop offset="1" stop-color="white" stop-opacity="0"/>
</linearGradient>
<linearGradient id="paint3_linear_495_1" x1="400.206" y1="160.694" x2="400.206" y2="468.345" gradientUnits="userSpaceOnUse">
<stop stop-color="#822626"/>
<stop offset="0.943497" stop-color="#402B2B"/>
</linearGradient>
<linearGradient id="paint4_linear_495_1" x1="400.206" y1="285.298" x2="400.206" y2="521.203" gradientUnits="userSpaceOnUse">
<stop stop-color="#5200D9"/>
<stop offset="1" stop-color="white" stop-opacity="0"/>
</linearGradient>
<linearGradient id="paint5_linear_495_1" x1="377.774" y1="233.275" x2="377.774" y2="253.018" gradientUnits="userSpaceOnUse">
<stop stop-color="#5200D9"/>
<stop offset="1" stop-color="white" stop-opacity="0"/>
</linearGradient>
<linearGradient id="paint6_linear_495_1" x1="61.0712" y1="145.064" x2="61.0712" y2="360.646" gradientUnits="userSpaceOnUse">
<stop stop-color="#5200D9"/>
<stop offset="1" stop-color="white" stop-opacity="0"/>
</linearGradient>
<linearGradient id="paint7_linear_495_1" x1="198.5" y1="94" x2="251.5" y2="221" gradientUnits="userSpaceOnUse">
<stop stop-color="#5200D9"/>
<stop offset="0.926161" stop-color="white"/>
</linearGradient>
<linearGradient id="paint8_linear_495_1" x1="512.697" y1="401.25" x2="512.697" y2="483.609" gradientUnits="userSpaceOnUse">
<stop stop-color="#5200D9"/>
<stop offset="1" stop-color="white" stop-opacity="0"/>
</linearGradient>
<linearGradient id="paint9_linear_495_1" x1="490.239" y1="384.171" x2="490.239" y2="395.567" gradientUnits="userSpaceOnUse">
<stop stop-color="#5200D9"/>
<stop offset="1" stop-color="white" stop-opacity="0"/>
</linearGradient>
<linearGradient id="paint10_linear_495_1" x1="441.591" y1="401.25" x2="441.591" y2="483.609" gradientUnits="userSpaceOnUse">
<stop stop-color="#5200D9"/>
<stop offset="1" stop-color="white" stop-opacity="0"/>
</linearGradient>
<linearGradient id="paint11_linear_495_1" x1="476.242" y1="401.25" x2="476.242" y2="483.609" gradientUnits="userSpaceOnUse">
<stop stop-color="#5200D9"/>
<stop offset="1" stop-color="white" stop-opacity="0"/>
</linearGradient>
<linearGradient id="paint12_linear_495_1" x1="477.383" y1="384.171" x2="477.383" y2="395.567" gradientUnits="userSpaceOnUse">
<stop stop-color="#5200D9"/>
<stop offset="1" stop-color="white" stop-opacity="0"/>
</linearGradient>
<linearGradient id="paint13_linear_495_1" x1="419.132" y1="384.171" x2="419.132" y2="395.567" gradientUnits="userSpaceOnUse">
<stop stop-color="#5200D9"/>
<stop offset="1" stop-color="white" stop-opacity="0"/>
</linearGradient>
<linearGradient id="paint14_linear_495_1" x1="469.244" y1="319.975" x2="469.244" y2="402.335" gradientUnits="userSpaceOnUse">
<stop stop-color="#5200D9"/>
<stop offset="1" stop-color="white" stop-opacity="0"/>
</linearGradient>
<linearGradient id="paint15_linear_495_1" x1="503.895" y1="319.975" x2="503.895" y2="402.335" gradientUnits="userSpaceOnUse">
<stop stop-color="#5200D9"/>
<stop offset="1" stop-color="white" stop-opacity="0"/>
</linearGradient>
<linearGradient id="paint16_linear_495_1" x1="505.035" y1="302.896" x2="505.035" y2="314.292" gradientUnits="userSpaceOnUse">
<stop stop-color="#5200D9"/>
<stop offset="1" stop-color="white" stop-opacity="0"/>
</linearGradient>
<linearGradient id="paint17_linear_495_1" x1="446.784" y1="302.896" x2="446.784" y2="314.292" gradientUnits="userSpaceOnUse">
<stop stop-color="#5200D9"/>
<stop offset="1" stop-color="white" stop-opacity="0"/>
</linearGradient>
<linearGradient id="paint18_linear_495_1" x1="358.392" y1="36.0144" x2="358.392" y2="47.3586" gradientUnits="userSpaceOnUse">
<stop stop-color="#5200D9"/>
<stop offset="1" stop-color="white" stop-opacity="0"/>
</linearGradient>
<linearGradient id="paint19_linear_495_1" x1="329.852" y1="156.039" x2="329.852" y2="204.011" gradientUnits="userSpaceOnUse">
<stop stop-color="#FFB3B6"/>
<stop offset="1" stop-color="#FFC8C1"/>
</linearGradient>
<linearGradient id="paint20_linear_495_1" x1="331.166" y1="167.581" x2="331.166" y2="215.54" gradientUnits="userSpaceOnUse">
<stop stop-color="#5200D9"/>
<stop offset="1" stop-color="white" stop-opacity="0"/>
</linearGradient>
<linearGradient id="paint21_linear_495_1" x1="319.28" y1="201.765" x2="346.679" y2="116.342" gradientUnits="userSpaceOnUse">
<stop stop-color="#AC82F0"/>
<stop offset="1" stop-color="#8243E9"/>
</linearGradient>
<linearGradient id="paint22_linear_495_1" x1="324.853" y1="132.168" x2="349.016" y2="210.677" gradientUnits="userSpaceOnUse">
<stop stop-color="#5200D9"/>
<stop offset="1" stop-color="white" stop-opacity="0"/>
</linearGradient>
<linearGradient id="paint23_linear_495_1" x1="383.964" y1="45.8286" x2="383.964" y2="231.179" gradientUnits="userSpaceOnUse">
<stop stop-color="#AF84F4"/>
<stop offset="1" stop-color="#8E53F0"/>
</linearGradient>
<linearGradient id="paint24_linear_495_1" x1="383.964" y1="130.837" x2="383.964" y2="266.247" gradientUnits="userSpaceOnUse">
<stop stop-color="#5200D9"/>
<stop offset="1" stop-color="white" stop-opacity="0"/>
</linearGradient>
<linearGradient id="paint25_linear_495_1" x1="394.18" y1="99.2404" x2="375.727" y2="107.199" gradientUnits="userSpaceOnUse">
<stop stop-color="#FFB3B6"/>
<stop offset="1" stop-color="#FFC8C1"/>
</linearGradient>
<linearGradient id="paint26_linear_495_1" x1="386.707" y1="87.5269" x2="386.707" y2="110.447" gradientUnits="userSpaceOnUse">
<stop stop-color="#5200D9"/>
<stop offset="1" stop-color="white" stop-opacity="0"/>
</linearGradient>
<linearGradient id="paint27_linear_495_1" x1="394.545" y1="90.0869" x2="375.988" y2="97.9458" gradientUnits="userSpaceOnUse">
<stop stop-color="#FFB3B6" stop-opacity="0.31"/>
<stop offset="1" stop-color="#FFC8C1"/>
</linearGradient>
<linearGradient id="paint28_linear_495_1" x1="387.073" y1="85.1916" x2="387.073" y2="99.4689" gradientUnits="userSpaceOnUse">
<stop stop-color="#5200D9"/>
<stop offset="1" stop-color="white" stop-opacity="0"/>
</linearGradient>
<linearGradient id="paint29_linear_495_1" x1="408.225" y1="160.997" x2="408.225" y2="257.542" gradientUnits="userSpaceOnUse">
<stop stop-color="#5200D9"/>
<stop offset="1" stop-color="white" stop-opacity="0"/>
</linearGradient>
<linearGradient id="paint30_linear_495_1" x1="402.904" y1="48.1751" x2="402.904" y2="82.9887" gradientUnits="userSpaceOnUse">
<stop stop-color="#5200D9"/>
<stop offset="1" stop-color="white" stop-opacity="0"/>
</linearGradient>
<linearGradient id="paint31_linear_495_1" x1="360.994" y1="43.8174" x2="360.994" y2="63.5571" gradientUnits="userSpaceOnUse">
<stop stop-color="#5200D9"/>
<stop offset="1" stop-color="white" stop-opacity="0"/>
</linearGradient>
<linearGradient id="paint32_linear_495_1" x1="355.612" y1="85.5432" x2="359.559" y2="50.2727" gradientUnits="userSpaceOnUse">
<stop stop-color="#FFB3B6"/>
<stop offset="1" stop-color="#FFC8C1"/>
</linearGradient>
<linearGradient id="paint33_linear_495_1" x1="384.217" y1="52.194" x2="384.217" y2="103.286" gradientUnits="userSpaceOnUse">
<stop stop-color="#5200D9"/>
<stop offset="1" stop-color="white" stop-opacity="0"/>
</linearGradient>
<linearGradient id="paint34_linear_495_1" x1="373.829" y1="75.5362" x2="373.829" y2="83.8047" gradientUnits="userSpaceOnUse">
<stop stop-color="#5200D9"/>
<stop offset="1" stop-color="white" stop-opacity="0"/>
</linearGradient>
<linearGradient id="paint35_linear_495_1" x1="373.994" y1="74.4965" x2="373.994" y2="78.4444" gradientUnits="userSpaceOnUse">
<stop stop-color="#5200D9"/>
<stop offset="1" stop-color="white" stop-opacity="0"/>
</linearGradient>
<linearGradient id="paint36_linear_495_1" x1="381.96" y1="26.6286" x2="381.96" y2="62.878" gradientUnits="userSpaceOnUse">
<stop stop-color="#5200D9"/>
<stop offset="1" stop-color="white" stop-opacity="0"/>
</linearGradient>
<linearGradient id="paint37_linear_495_1" x1="386.922" y1="-4.78764" x2="386.922" y2="48.2554" gradientUnits="userSpaceOnUse">
<stop stop-color="#AC82F0"/>
<stop offset="1" stop-color="#8243E9"/>
</linearGradient>
<linearGradient id="paint38_linear_495_1" x1="386.922" y1="21.697" x2="386.922" y2="55.368" gradientUnits="userSpaceOnUse">
<stop stop-color="#5200D9"/>
<stop offset="1" stop-color="white" stop-opacity="0"/>
</linearGradient>
<linearGradient id="paint39_linear_495_1" x1="388.309" y1="23.0468" x2="388.309" y2="78.1906" gradientUnits="userSpaceOnUse">
<stop stop-color="#AC82F0"/>
<stop offset="1" stop-color="#8243E9"/>
</linearGradient>
<linearGradient id="paint40_linear_495_1" x1="372.533" y1="33.2147" x2="372.533" y2="53.6395" gradientUnits="userSpaceOnUse">
<stop stop-color="#5200D9"/>
<stop offset="1" stop-color="white" stop-opacity="0"/>
</linearGradient>
<linearGradient id="paint41_linear_495_1" x1="367.287" y1="46.8641" x2="367.287" y2="49.511" gradientUnits="userSpaceOnUse">
<stop stop-color="#5200D9"/>
<stop offset="1" stop-color="white" stop-opacity="0"/>
</linearGradient>
<linearGradient id="paint42_linear_495_1" x1="388.804" y1="48.5814" x2="388.804" y2="53.2473" gradientUnits="userSpaceOnUse">
<stop stop-color="#5200D9"/>
<stop offset="1" stop-color="white" stop-opacity="0"/>
</linearGradient>
<linearGradient id="paint43_linear_495_1" x1="370.887" y1="61.1747" x2="370.887" y2="72.6852" gradientUnits="userSpaceOnUse">
<stop stop-color="#5200D9"/>
<stop offset="1" stop-color="white" stop-opacity="0"/>
</linearGradient>
<linearGradient id="paint44_linear_495_1" x1="385.705" y1="58.586" x2="385.705" y2="65.4052" gradientUnits="userSpaceOnUse">
<stop stop-color="#5200D9"/>
<stop offset="1" stop-color="white" stop-opacity="0"/>
</linearGradient>
<linearGradient id="paint45_linear_495_1" x1="365.647" y1="56.2146" x2="365.647" y2="63.0338" gradientUnits="userSpaceOnUse">
<stop stop-color="#5200D9"/>
<stop offset="1" stop-color="white" stop-opacity="0"/>
</linearGradient>
<linearGradient id="paint46_linear_495_1" x1="278.108" y1="139.092" x2="288.92" y2="159.267" gradientUnits="userSpaceOnUse">
<stop stop-color="#5200D9"/>
<stop offset="1" stop-color="white" stop-opacity="0"/>
</linearGradient>
<linearGradient id="paint47_linear_495_1" x1="281.315" y1="145.048" x2="292.127" y2="165.222" gradientUnits="userSpaceOnUse">
<stop stop-color="#5200D9"/>
<stop offset="1" stop-color="white" stop-opacity="0"/>
</linearGradient>
<linearGradient id="paint48_linear_495_1" x1="356.753" y1="185.245" x2="337.977" y2="192.679" gradientUnits="userSpaceOnUse">
<stop stop-color="#F4A984"/>
<stop offset="1" stop-color="#EE4D47"/>
</linearGradient>
<linearGradient id="paint49_linear_495_1" x1="353.178" y1="188.159" x2="353.178" y2="203.617" gradientUnits="userSpaceOnUse">
<stop stop-color="#5200D9"/>
<stop offset="1" stop-color="white" stop-opacity="0"/>
</linearGradient>
<linearGradient id="paint50_linear_495_1" x1="300.768" y1="176.525" x2="300.768" y2="262.578" gradientUnits="userSpaceOnUse">
<stop stop-color="#5200D9"/>
<stop offset="1" stop-color="white" stop-opacity="0"/>
</linearGradient>
<linearGradient id="paint51_linear_495_1" x1="348" y1="201" x2="170" y2="235" gradientUnits="userSpaceOnUse">
<stop stop-color="#A979FA"/>
<stop offset="1" stop-color="#B992F9"/>
</linearGradient>
<linearGradient id="paint52_linear_495_1" x1="299.748" y1="175.077" x2="299.748" y2="270.967" gradientUnits="userSpaceOnUse">
<stop stop-color="#5200D9"/>
<stop offset="1" stop-color="white" stop-opacity="0"/>
</linearGradient>
<linearGradient id="paint53_linear_495_1" x1="413.518" y1="164.845" x2="318.985" y2="196.356" gradientUnits="userSpaceOnUse">
<stop stop-color="#FFB3B6"/>
<stop offset="1" stop-color="#FFC8C1"/>
</linearGradient>
<linearGradient id="paint54_linear_495_1" x1="376.851" y1="138.069" x2="376.851" y2="237.888" gradientUnits="userSpaceOnUse">
<stop stop-color="#5200D9"/>
<stop offset="1" stop-color="white" stop-opacity="0"/>
</linearGradient>
<linearGradient id="paint55_linear_495_1" x1="380.929" y1="151.398" x2="436.004" y2="188.557" gradientUnits="userSpaceOnUse">
<stop stop-color="#AC82F0"/>
<stop offset="0.295" stop-color="#8243E9"/>
</linearGradient>
<linearGradient id="paint56_linear_495_1" x1="391.537" y1="131.992" x2="391.537" y2="221.722" gradientUnits="userSpaceOnUse">
<stop stop-color="#5200D9"/>
<stop offset="1" stop-color="white" stop-opacity="0"/>
</linearGradient>
<linearGradient id="paint57_linear_495_1" x1="178.048" y1="284.624" x2="178.048" y2="349.547" gradientUnits="userSpaceOnUse">
<stop stop-color="#5200D9"/>
<stop offset="1" stop-color="white" stop-opacity="0"/>
</linearGradient>
<linearGradient id="paint58_linear_495_1" x1="243.505" y1="309.412" x2="243.505" y2="390.073" gradientUnits="userSpaceOnUse">
<stop stop-color="#5200D9"/>
<stop offset="1" stop-color="white" stop-opacity="0"/>
</linearGradient>
<linearGradient id="paint59_linear_495_1" x1="311.148" y1="316.552" x2="311.148" y2="426.879" gradientUnits="userSpaceOnUse">
<stop stop-color="#5200D9"/>
<stop offset="1" stop-color="white" stop-opacity="0"/>
</linearGradient>
<linearGradient id="paint60_linear_495_1" x1="312.226" y1="356.614" x2="312.226" y2="415.31" gradientUnits="userSpaceOnUse">
<stop stop-color="#5200D9"/>
<stop offset="1" stop-color="white" stop-opacity="0"/>
</linearGradient>
<linearGradient id="paint61_linear_495_1" x1="309.053" y1="413.837" x2="309.053" y2="463.02" gradientUnits="userSpaceOnUse">
<stop stop-color="#5200D9"/>
<stop offset="1" stop-color="white" stop-opacity="0"/>
</linearGradient>
</defs>
</svg>
